<svg width="24" height="25" viewBox="0 0 24 25" fill="none" xmlns="http://www.w3.org/2000/svg">
<path d="M20.1169 4.38311C18.4556 2.7228 16.0312 2.05905 13.2947 2.51561C10.6941 2.94874 8.0953 4.35499 5.97468 6.47468C3.85405 8.59436 2.44874 11.194 2.01561 13.7947C1.55905 16.5331 2.2228 18.9556 3.88311 20.6169C5.20124 21.935 7.0003 22.625 9.05624 22.625C9.60885 22.6234 10.1604 22.5764 10.7053 22.4844C13.3059 22.0512 15.9047 20.645 18.0253 18.5253C20.1459 16.4056 21.5512 13.8059 21.9844 11.2053C22.4409 8.46874 21.7772 6.04436 20.1169 4.38311ZM4.23468 14.1641C4.59093 12.0228 5.77405 9.85718 7.56561 8.0703C9.35718 6.28343 11.5228 5.09374 13.6641 4.73467C14.0828 4.66315 14.5067 4.62647 14.9316 4.62499C15.5103 4.62081 16.0865 4.702 16.6416 4.86593C15.8762 5.20923 15.1555 5.64463 14.4956 6.16249C12.6206 7.64093 11.4131 9.69874 10.8975 12.2797C10.0584 16.4731 7.11936 18.0078 5.07843 18.5694C4.24218 17.4528 3.94311 15.9134 4.23468 14.1641ZM19.7653 10.8359C19.4091 12.9772 18.2259 15.1428 16.4344 16.9344C14.6428 18.7259 12.4772 19.9062 10.3359 20.2653C9.24374 20.4472 8.23593 20.3975 7.35936 20.1322C8.12426 19.7898 8.84432 19.355 9.50343 18.8375C11.3784 17.359 12.5869 15.3012 13.1025 12.7203C13.9462 8.52686 16.8806 6.99218 18.9216 6.43061C19.7578 7.54718 20.0569 9.08655 19.7653 10.8359Z" fill="#4D200C" fill-opacity="0.9975"/>
</svg>
