<svg width="22" height="17" viewBox="0 0 22 17" fill="none" xmlns="http://www.w3.org/2000/svg">
<path d="M-0.00065675 5.26666C-0.001001 4.87266 0.0912071 4.48408 0.268539 4.13224C0.44587 3.7804 0.703367 3.47513 1.02028 3.24103C1.3372 3.00693 1.70467 2.85054 2.0931 2.78446C2.48152 2.71839 2.88003 2.74448 3.25653 2.86062C3.63302 2.97677 3.97697 3.17972 4.26067 3.45314C4.54436 3.72656 4.75987 4.06279 4.88982 4.43474C5.01977 4.8067 5.06054 5.20398 5.00884 5.59457C4.95713 5.98517 4.81441 6.35816 4.59215 6.6835L6.99907 9.64834L9.16341 4.67369C8.76867 4.34147 8.48563 3.8959 8.35266 3.3974C8.21968 2.89889 8.24319 2.37156 8.42002 1.88687C8.59684 1.40218 8.91841 0.983578 9.34115 0.687807C9.76389 0.392036 10.2674 0.233398 10.7833 0.233398C11.2992 0.233398 11.8027 0.392036 12.2254 0.687807C12.6482 0.983578 12.9697 1.40218 13.1466 1.88687C13.3234 2.37156 13.3469 2.89889 13.2139 3.3974C13.0809 3.8959 12.7979 4.34147 12.4032 4.67369L14.5621 9.64565L16.969 6.6808C16.6598 6.22776 16.5072 5.68608 16.5343 5.13826C16.5615 4.59044 16.7669 4.0665 17.1194 3.64624C17.4718 3.22597 17.9519 2.93241 18.4867 2.81027C19.0214 2.68812 19.5814 2.74409 20.0813 2.96964C20.5813 3.19519 20.9939 3.57797 21.2562 4.05967C21.5185 4.54137 21.6162 5.09561 21.5344 5.63797C21.4525 6.18032 21.1957 6.68108 20.803 7.06397C20.4102 7.44686 19.9031 7.6909 19.3589 7.75893L18.0579 15.5655C18.002 15.9011 17.8288 16.206 17.5692 16.4259C17.3097 16.6459 16.9805 16.7666 16.6402 16.7667H4.92098C4.58074 16.7666 4.25154 16.6459 3.99194 16.4259C3.73234 16.206 3.55918 15.9011 3.50325 15.5655L2.20321 7.76252C1.59481 7.68654 1.0351 7.39097 0.629272 6.93138C0.223443 6.47178 -0.000565832 5.87979 -0.00065675 5.26666ZM10.7806 1.67291C10.5674 1.67291 10.3589 1.73614 10.1816 1.85461C10.0043 1.97307 9.86614 2.14145 9.78454 2.33846C9.70293 2.53546 9.68158 2.75223 9.72318 2.96137C9.76478 3.1705 9.86747 3.36261 10.0182 3.51339C10.169 3.66416 10.3611 3.76685 10.5703 3.80845C10.7794 3.85004 10.9962 3.82869 11.1932 3.74709C11.3902 3.66549 11.5586 3.52731 11.677 3.35001C11.7955 3.17271 11.8587 2.96427 11.8587 2.75104C11.8587 2.4651 11.7451 2.19087 11.5429 1.98869C11.3408 1.7865 11.0665 1.67291 10.7806 1.67291ZM20.1243 5.26666C20.1243 5.05343 20.0611 4.84498 19.9426 4.66769C19.8242 4.49039 19.6558 4.3522 19.4588 4.2706C19.2618 4.189 19.045 4.16765 18.8359 4.20925C18.6267 4.25085 18.4346 4.35353 18.2839 4.50431C18.1331 4.65509 18.0304 4.84719 17.9888 5.05633C17.9472 5.26546 17.9686 5.48224 18.0502 5.67924C18.1318 5.87624 18.2699 6.04462 18.4472 6.16309C18.6245 6.28156 18.833 6.34479 19.0462 6.34479C19.3322 6.34479 19.6064 6.2312 19.8086 6.02901C20.0108 5.82682 20.1243 5.5526 20.1243 5.26666ZM4.92098 15.3292H16.6402L17.8908 7.829L14.9323 11.4659C14.8653 11.5496 14.7804 11.6172 14.6838 11.6639C14.5873 11.7105 14.4816 11.7349 14.3743 11.7354C14.3419 11.7355 14.3095 11.7334 14.2773 11.7291C14.1549 11.7125 14.0388 11.6645 13.9403 11.5899C13.8417 11.5153 13.7641 11.4166 13.7149 11.3033L11.0825 5.24779C10.882 5.27294 10.6792 5.27294 10.4787 5.24779L7.8463 11.3033C7.79707 11.4166 7.71944 11.5153 7.62093 11.5899C7.52241 11.6645 7.40632 11.7125 7.28387 11.7291C7.25171 11.7334 7.21929 11.7355 7.18684 11.7354C7.07963 11.7349 6.97388 11.7105 6.87734 11.6639C6.7808 11.6172 6.69592 11.5496 6.62891 11.4659L3.67036 7.82541L4.92098 15.3292ZM2.51497 6.34479C2.7282 6.34479 2.93665 6.28156 3.11394 6.16309C3.29124 6.04462 3.42942 5.87624 3.51103 5.67924C3.59263 5.48224 3.61398 5.26546 3.57238 5.05633C3.53078 4.84719 3.42809 4.65509 3.27732 4.50431C3.12654 4.35353 2.93443 4.25085 2.7253 4.20925C2.51616 4.16765 2.29939 4.189 2.10239 4.2706C1.90539 4.3522 1.73701 4.49039 1.61854 4.66769C1.50008 4.84498 1.43684 5.05343 1.43684 5.26666C1.43684 5.5526 1.55043 5.82682 1.75262 6.02901C1.95481 6.2312 2.22903 6.34479 2.51497 6.34479Z" fill="#FF8F00"/>
</svg>
