<svg width="241" height="244" viewBox="0 0 241 244" fill="none" xmlns="http://www.w3.org/2000/svg">
<path d="M240.13 22.6208L228.37 12.3008H83.0803L71.3203 22.6208L73.7203 58.4708L82.1703 210.711H75.6103V237.651H235.84V210.711H229.27L237.73 58.4708L240.13 22.6208Z" fill="#502719"/>
<path d="M34.9492 58.4707L43.3992 210.711H190.499L198.959 58.4707H34.9492Z" fill="#F9DDAA"/>
<path d="M201.361 22.6208H32.5508L44.3108 12.3008H189.601L201.361 22.6208Z" fill="#F17A35"/>
<path d="M47.3594 0.5H186.539" stroke="#502719" stroke-miterlimit="10"/>
<path d="M61.2285 0.5V12.3" stroke="#502719" stroke-miterlimit="10"/>
<path d="M172.678 0.5V12.3" stroke="#502719" stroke-miterlimit="10"/>
<path d="M87.6895 0.5H226.869" stroke="#502719" stroke-miterlimit="10"/>
<path d="M101.559 0.5V12.3" stroke="#502719" stroke-miterlimit="10"/>
<path d="M213.008 0.5V12.3" stroke="#502719" stroke-miterlimit="10"/>
<path d="M201.361 22.6191H32.5508L34.9508 58.4691H64.0708C69.1508 58.4691 73.7808 61.3091 76.7908 65.7991C79.1108 69.2691 82.8508 71.5191 87.0808 71.5191H146.841C151.071 71.5191 154.811 69.2691 157.131 65.7991C160.141 61.3091 164.761 58.4691 169.851 58.4691H198.971L201.361 22.6191Z" fill="#F17A35"/>
<path d="M143.379 71.5195H90.5293V81.1995H143.379V71.5195Z" fill="white"/>
<path d="M137.98 81.1895H95.9297V93.9594H137.98V81.1895Z" fill="white"/>
<path d="M96.9904 85.0195H50.9004V90.1295H96.9904V85.0195Z" fill="white"/>
<path d="M49.44 93.9592H4.78C2.14 93.9592 0 91.8192 0 89.1792V85.9792C0 83.3392 2.14 81.1992 4.78 81.1992H49.44C50.6 81.1992 51.54 82.1392 51.54 83.2992V91.8592C51.54 93.0192 50.6 93.9592 49.44 93.9592Z" fill="#502719"/>
<path d="M169.301 214.391H64.6109L62.5909 175.031C60.9909 143.911 85.7909 117.801 116.961 117.801C148.121 117.801 172.921 143.911 171.331 175.031L169.301 214.391Z" stroke="#502719" stroke-miterlimit="10"/>
<path d="M127.191 93.9609H106.721V146.281H127.191V93.9609Z" fill="#502719"/>
<path d="M38.2305 22.6191H195.67" stroke="#502719" stroke-miterlimit="10"/>
<path d="M92.9609 81.1895H140.951" stroke="#502719" stroke-miterlimit="10"/>
<path d="M54.0492 45.7004C54.0492 48.3504 51.8992 50.5004 49.2492 50.5004C46.5992 50.5004 44.4492 48.3504 44.4492 45.7004C44.4492 43.0504 46.5992 40.9004 49.2492 40.9004C51.8992 40.9004 54.0492 43.0504 54.0492 45.7004Z" stroke="#502719" stroke-miterlimit="10"/>
<path d="M85.1775 43.7364C86.2983 39.0075 83.3733 34.2655 78.6444 33.1447C73.9155 32.024 69.1735 34.9489 68.0527 39.6778C66.932 44.4067 69.857 49.1488 74.5858 50.2695C79.3147 51.3903 84.0568 48.4653 85.1775 43.7364Z" stroke="#502719" stroke-miterlimit="10"/>
<path d="M179.85 45.7004C179.85 48.3504 182 50.5004 184.65 50.5004C187.3 50.5004 189.45 48.3504 189.45 45.7004C189.45 43.0504 187.3 40.9004 184.65 40.9004C182 40.9004 179.85 43.0504 179.85 45.7004Z" stroke="#502719" stroke-miterlimit="10"/>
<path d="M159.635 50.177C164.316 48.8731 167.055 44.0207 165.751 39.3389C164.447 34.6572 159.594 31.919 154.913 33.2229C150.231 34.5269 147.493 39.3793 148.797 44.061C150.101 48.7428 154.953 51.481 159.635 50.177Z" stroke="#502719" stroke-miterlimit="10"/>
<path d="M116.949 30.0098V53.0698" stroke="#502719" stroke-miterlimit="10"/>
<path d="M197.07 210.711H36.8301V237.641H197.07V210.711Z" fill="#F17A35"/>
<path d="M77.1105 237.65H49.0605V243.04H77.1105V237.65Z" fill="#502719"/>
<path d="M184.841 237.65H156.791V243.04H184.841V237.65Z" fill="#502719"/>
<path d="M124.72 237.65H96.6699V243.04H124.72V237.65Z" fill="#502719"/>
<path d="M232.45 237.65H204.4V243.04H232.45V237.65Z" fill="#502719"/>
<path d="M50.7402 226.779H183.17" stroke="#502719" stroke-miterlimit="10"/>
<path d="M50.7402 230.68H183.17" stroke="#502719" stroke-miterlimit="10"/>
<path d="M156.109 149.109C152.649 147.009 148.349 146.589 144.639 147.799V146.279H84.4492V181.969C84.4492 192.169 90.1292 201.039 98.4992 205.599V210.709H130.589V205.599C138.139 201.489 143.479 193.869 144.469 184.939C146.049 182.999 148.429 181.569 150.929 180.059C153.159 178.719 155.459 177.339 157.469 175.449C161.209 171.939 163.409 166.959 163.339 162.109C163.259 156.839 160.419 151.729 156.109 149.109ZM153.399 171.109C151.849 172.559 149.909 173.719 147.859 174.959C146.779 175.609 145.699 176.269 144.639 176.979V154.389C146.929 152.719 150.439 152.629 153.019 154.199C155.629 155.779 157.339 158.919 157.389 162.199C157.429 165.399 155.939 168.729 153.399 171.109Z" fill="white"/>
<path d="M144.92 147.799V180.829" stroke="#502719" stroke-miterlimit="10"/>
<path d="M101.549 205.939H130.589" stroke="#502719" stroke-miterlimit="10"/>
<path d="M202.34 210.711H235.84" stroke="white" stroke-miterlimit="10"/>
<path d="M204.4 58.4707H237.9" stroke="white" stroke-miterlimit="10"/>
<path d="M206.619 22.6191H240.129" stroke="white" stroke-miterlimit="10"/>
</svg>
