<svg width="376" height="372" viewBox="0 0 376 372" fill="none" xmlns="http://www.w3.org/2000/svg" xmlns:xlink="http://www.w3.org/1999/xlink">
<path d="M198.1,20.543C191.066,24.171 183.937,27.831 177.97,33.051C172.003,38.254 167.229,45.24 166.242,53.101C165.685,57.588 166.354,62.267 164.89,66.548C162.9,72.34 157.156,76.795 156.981,82.938C156.806,89.255 162.725,94.411 162.884,100.729C163.091,108.51 154.498,115.209 156.535,122.72C158.317,129.292 166.895,131.313 170.746,136.915C173.483,140.893 173.467,146.081 174.581,150.775C177.731,164.046 191.703,173.785 205.229,172.178C201.585,168.438 203.208,162.344 206.025,157.952C208.841,153.56 212.851,149.757 214.22,144.712C215.461,140.145 214.14,134.973 210.894,131.536C208.666,129.197 205.531,127.478 204.497,124.423C203.065,120.19 206.359,116.021 207.934,111.836C209.971,106.457 209.016,100.076 205.499,95.525C202.985,92.263 199.214,89.812 197.893,85.898C195.331,78.291 203.463,69.921 200.455,62.49C198.864,58.575 194.695,56.427 192.053,53.133C188.282,48.423 187.995,41.628 189.841,35.867C191.687,30.123 194.519,25.412 198.1,20.543Z" fill="#2E6B68"/>
<path d="M187.837,30.457C186.889,30.139 186.889,30.14 186.889,30.141C186.888,30.142 186.888,30.143 186.887,30.145C186.886,30.148 186.885,30.153 186.883,30.159C186.878,30.172 186.872,30.19 186.864,30.214C186.848,30.263 186.825,30.335 186.794,30.429C186.733,30.618 186.643,30.897 186.528,31.263C186.298,31.994 185.968,33.069 185.566,34.45C184.762,37.213 183.667,41.205 182.505,46.125C180.18,55.962 177.579,69.528 176.479,84.428C174.284,114.153 178.041,149.539 202.34,171.018L203.665,169.519C180.114,148.702 176.288,114.182 178.473,84.575C179.563,69.81 182.143,56.353 184.451,46.585C185.605,41.702 186.69,37.744 187.486,35.009C187.885,33.642 188.21,32.581 188.436,31.862C188.549,31.503 188.637,31.23 188.696,31.047C188.726,30.956 188.748,30.887 188.763,30.841C188.771,30.819 188.777,30.802 188.78,30.79C188.782,30.785 188.783,30.781 188.784,30.778C188.785,30.777 188.785,30.776 188.785,30.775C188.785,30.775 188.785,30.775 187.837,30.457Z" fill="#502719"/>
<path d="M195.235,161.044C197.501,152.059 199.416,142.995 200.964,133.866L198.992,133.532C197.453,142.608 195.549,151.621 193.296,160.554L195.235,161.044Z" fill="#502719"/>
<path d="M186.047,145.105C187.447,140.88 188.847,136.66 190.248,132.439C191.648,128.218 193.049,123.997 194.449,119.772L192.55,119.142C191.15,123.367 189.75,127.588 188.35,131.809C186.949,136.03 185.549,140.251 184.148,144.476L186.047,145.105Z" fill="#502719"/>
<path d="M180.438,127.595C182.499,123.864 184.556,120.136 186.612,116.408C188.669,112.681 190.726,108.953 192.786,105.222L191.036,104.255C188.975,107.987 186.918,111.714 184.861,115.442C182.804,119.17 180.748,122.897 178.687,126.628L180.438,127.595Z" fill="#502719"/>
<path d="M177.908,108.329C184.041,101.667 189.598,94.476 194.499,86.853L192.817,85.772C187.978,93.298 182.492,100.397 176.436,106.974L177.908,108.329Z" fill="#502719"/>
<path d="M177.361,88.905C182.641,83.769 187.616,78.314 192.255,72.603L190.703,71.342C186.112,76.993 181.19,82.391 175.967,87.471L177.361,88.905Z" fill="#502719"/>
<path d="M179.591,73.348C183.061,68.27 186.529,63.18 190.013,58.105L188.364,56.973C184.878,62.05 181.408,67.145 177.94,72.22L179.591,73.348Z" fill="#502719"/>
<path d="M182.196,55.06C183.397,52.751 184.784,50.523 186.356,48.438L184.759,47.234C183.116,49.414 181.671,51.737 180.421,54.137L182.196,55.06Z" fill="#502719"/>
<path d="M185.539,40.491C184.68,38.248 183.839,36.011 182.978,33.746L181.108,34.457C181.965,36.711 182.812,38.962 183.671,41.206L185.539,40.491Z" fill="#502719"/>
<path d="M182.433,53.137C180.683,50.497 179.167,47.699 177.901,44.792L176.068,45.591C177.379,48.603 178.951,51.503 180.766,54.241L182.433,53.137Z" fill="#502719"/>
<path d="M179.172,72.747C178.274,71.181 177.379,69.611 176.484,68.04C175.589,66.468 174.693,64.896 173.793,63.327L172.058,64.322C172.957,65.888 173.851,67.458 174.746,69.029C175.641,70.601 176.537,72.173 177.437,73.742L179.172,72.747Z" fill="#502719"/>
<path d="M177.655,87.02C173.969,83.351 170.952,78.996 168.806,74.237L166.983,75.06C169.229,80.04 172.386,84.596 176.243,88.438L177.655,87.02Z" fill="#502719"/>
<path d="M177.573,107.197C173.332,101.934 169.797,96.121 167.063,89.947L165.234,90.756C168.038,97.089 171.664,103.052 176.016,108.452L177.573,107.197Z" fill="#502719"/>
<path d="M179.876,126.427C174.929,123.29 170.527,119.294 166.904,114.672L165.33,115.906C169.091,120.705 173.664,124.856 178.805,128.116L179.876,126.427Z" fill="#502719"/>
<path d="M185.389,144.105C183.232,142.314 181.076,140.524 178.92,138.734C176.764,136.944 174.607,135.154 172.451,133.363L171.174,134.902C173.33,136.692 175.486,138.483 177.642,140.273C179.799,142.063 181.955,143.853 184.111,145.643L185.389,144.105Z" fill="#502719"/>
<path d="M194.25,159.617C189.128,157.593 184.131,155.3 179.243,152.754L178.319,154.527C183.266,157.105 188.326,159.427 193.515,161.477L194.25,159.617Z" fill="#502719"/>
<path d="M79.39,240.511C79.295,232.603 79.199,224.582 81.013,216.881C82.828,209.179 86.742,201.668 93.235,197.133C96.942,194.539 101.398,192.931 104.485,189.637C108.67,185.166 109.927,178.005 115.258,174.982C120.748,171.879 128.084,174.679 133.749,171.863C140.719,168.394 142.613,157.668 150.219,155.95C156.871,154.454 162.647,161.074 169.426,161.853C174.232,162.41 178.799,159.96 183.477,158.75C196.669,155.313 211.834,163.095 216.751,175.809C211.739,174.345 207.108,178.626 204.546,183.177C201.984,187.712 200.504,193.043 196.685,196.607C193.232,199.838 188.044,201.111 183.493,199.838C180.39,198.978 177.399,197.005 174.216,197.53C169.808,198.246 167.66,203.116 164.7,206.458C160.913,210.77 154.802,212.918 149.153,211.948C145.095,211.247 141.165,209.067 137.091,209.736C129.182,211.04 125.586,222.148 117.613,222.959C113.412,223.389 109.561,220.716 105.408,219.92C99.473,218.79 93.346,221.734 89.113,226.046C84.849,230.359 82.016,235.069 79.39,240.511Z" fill="#2E6B68"/>
<path d="M83.336,226.812C84.061,227.501 84.061,227.5 84.061,227.5C84.062,227.5 84.062,227.499 84.063,227.498C84.065,227.496 84.068,227.493 84.072,227.489C84.08,227.48 84.093,227.467 84.109,227.45C84.143,227.415 84.193,227.363 84.26,227.294C84.393,227.156 84.594,226.95 84.858,226.682C85.387,226.146 86.172,225.361 87.194,224.369C89.237,222.384 92.225,219.571 95.999,216.264C103.548,209.647 114.229,201.064 126.764,193.183C151.898,177.381 184.189,164.59 213.614,175.649L214.318,173.777C183.958,162.366 150.934,175.625 125.699,191.49C113.05,199.442 102.283,208.096 94.68,214.759C90.878,218.092 87.865,220.929 85.8,222.934C84.768,223.937 83.972,224.732 83.434,225.277C83.165,225.55 82.96,225.76 82.822,225.903C82.753,225.974 82.701,226.029 82.666,226.066C82.648,226.084 82.635,226.098 82.625,226.108C82.621,226.113 82.617,226.116 82.615,226.119C82.614,226.12 82.613,226.121 82.612,226.122C82.611,226.122 82.611,226.123 83.336,226.812Z" fill="#502719"/>
<path d="M200.836,170.691C193.997,176.864 186.92,182.767 179.621,188.384L180.84,189.969C188.181,184.32 195.298,178.384 202.176,172.176L200.836,170.691Z" fill="#502719"/>
<path d="M182.357,170.137C176.214,176.566 170.072,182.995 163.915,189.423L165.359,190.806C171.518,184.377 177.661,177.948 183.803,171.519L182.357,170.137Z" fill="#502719"/>
<path d="M164.022,173.671C161.69,177.236 159.359,180.8 157.028,184.365C154.697,187.929 152.365,191.494 150.034,195.059L151.708,196.153C154.039,192.589 156.371,189.024 158.702,185.46C161.033,181.895 163.364,178.331 165.696,174.766L164.022,173.671Z" fill="#502719"/>
<path d="M145.598,180.902C142.626,189.328 138.911,197.503 134.531,205.298L136.274,206.278C140.71,198.383 144.473,190.104 147.485,181.567L145.598,180.902Z" fill="#502719"/>
<path d="M128.143,189.608C126.085,196.606 123.631,203.476 120.797,210.189L122.64,210.966C125.503,204.185 127.982,197.243 130.062,190.173L128.143,189.608Z" fill="#502719"/>
<path d="M115.614,198.495C114.182,201.217 112.75,203.942 111.318,206.667C109.885,209.392 108.453,212.117 107.021,214.838L108.791,215.769C110.224,213.048 111.656,210.323 113.088,207.597C114.52,204.872 115.952,202.147 117.384,199.427L115.614,198.495Z" fill="#502719"/>
<path d="M100.795,209.167C99.254,211.406 97.89,213.761 96.736,216.215L98.546,217.066C99.651,214.715 100.96,212.455 102.443,210.301L100.795,209.167Z" fill="#502719"/>
<path d="M90.879,218.086C88.491,218.388 86.108,218.69 83.725,218.976L83.963,220.962C86.354,220.675 88.744,220.372 91.13,220.07L90.879,218.086Z" fill="#502719"/>
<path d="M101.035,209.424C97.759,209.099 94.47,209.084 91.203,209.326L91.351,211.321C94.513,211.086 97.686,211.102 100.838,211.414L101.035,209.424Z" fill="#502719"/>
<path d="M116.704,197.342C114.897,197.287 113.091,197.231 111.285,197.175C109.479,197.12 107.673,197.064 105.867,197.008L105.805,199.007C107.611,199.063 109.417,199.119 111.223,199.174C113.03,199.23 114.836,199.286 116.642,199.342L116.704,197.342Z" fill="#502719"/>
<path d="M129.144,189.398C123.935,187.787 118.434,187.136 112.997,187.494L113.128,189.49C118.321,189.148 123.577,189.77 128.553,191.309L129.144,189.398Z" fill="#502719"/>
<path d="M146.715,179.838C139.914,178.532 132.937,178.113 126.024,178.597L126.164,180.592C132.904,180.121 139.707,180.529 146.338,181.802L146.715,179.838Z" fill="#502719"/>
<path d="M165.385,173.081C160.097,170.064 154.276,167.972 148.277,166.902L147.926,168.871C153.703,169.902 159.307,171.916 164.394,174.818L165.385,173.081Z" fill="#502719"/>
<path d="M183.365,169.554C180.771,168.488 178.182,167.422 175.592,166.356C173.002,165.29 170.412,164.223 167.818,163.157L167.057,165.007C169.651,166.073 172.24,167.139 174.83,168.205C177.42,169.271 180.01,170.338 182.604,171.404L183.365,169.554Z" fill="#502719"/>
<path d="M201.743,170.449C197.5,166.831 193.08,163.436 188.484,160.281L187.352,161.93C191.89,165.045 196.254,168.397 200.445,171.971L201.743,170.449Z" fill="#502719"/>
<path d="M284.889,215.623C282.9,210.451 284.459,205.057 287.61,200.49C290.761,195.923 294.994,192.183 298.16,187.632C301.327,183.081 303.38,177.161 301.407,171.974C299.736,167.566 295.36,164.113 295.328,159.403C295.28,153.515 301.725,150.109 305.703,145.781C311.336,139.655 312.196,129.645 307.692,122.644C304.955,118.395 300.468,115.085 299.322,110.168C297.285,101.495 306.578,94.08 307.294,85.2C307.724,79.901 305.019,74.857 301.772,70.656C298.542,66.455 294.659,62.683 292.113,58.021C289.567,53.358 288.549,47.375 291.318,42.84C284.698,46.134 282.295,56.127 282.088,63.511C281.881,70.91 282.454,78.93 278.269,85.025C274.498,90.515 267.305,93.634 265.411,100.015C262.913,108.433 271.188,117.265 268.721,125.683C266.827,132.096 259.062,136.472 259.683,143.139C260.049,147.102 263.422,150.268 263.884,154.231C264.472,159.323 260.208,163.492 257.773,168.027C252.967,176.986 255.577,188.476 261.56,196.703C267.544,204.914 276.328,210.133 284.889,215.623Z" fill="#2E6B68"/>
<path d="M276.677,162.425L277.671,162.536L277.671,162.535L276.677,162.425ZM288.744,70.02C288.047,81.253 285.303,99.65 282.466,117.607C279.636,135.525 276.713,153.007 275.683,162.315L277.671,162.535C278.694,153.289 281.603,135.889 284.442,117.919C287.274,99.989 290.036,81.491 290.74,70.144L288.744,70.02ZM275.683,162.314C274.651,171.575 273.591,181.253 274.294,190.429C274.998,199.624 277.475,208.394 283.575,215.812L285.12,214.542C279.364,207.542 276.972,199.214 276.288,190.276C275.602,181.319 276.635,171.83 277.671,162.536L275.683,162.314Z" fill="#502719"/>
<path d="M294.704,73.536C293.495,75.334 292.282,77.136 291.068,78.938C289.855,80.74 288.641,82.542 287.432,84.341L289.092,85.457C290.301,83.659 291.514,81.857 292.727,80.055C293.941,78.253 295.154,76.45 296.364,74.652L294.704,73.536Z" fill="#502719"/>
<path d="M297.505,84.288C293.958,89.932 289.875,95.244 285.32,100.114L286.781,101.48C291.424,96.516 295.584,91.102 299.198,85.352L297.505,84.288Z" fill="#502719"/>
<path d="M295.368,98.865C292.205,103.938 288.29,108.543 283.81,112.506L285.135,114.004C289.757,109.915 293.799,105.163 297.065,99.924L295.368,98.865Z" fill="#502719"/>
<path d="M294.6,113.903C290.143,118.424 285.69,122.957 281.219,127.476L282.641,128.883C287.113,124.363 291.571,119.825 296.025,115.308L294.6,113.903Z" fill="#502719"/>
<path d="M294.818,128.693C292.057,131.525 289.293,134.362 286.528,137.198C283.763,140.035 280.998,142.871 278.237,145.704L279.669,147.1C282.43,144.267 285.195,141.431 287.96,138.594C290.725,135.758 293.49,132.921 296.251,130.089L294.818,128.693Z" fill="#502719"/>
<path d="M292.017,146.279C286.796,151.181 281.594,156.081 276.375,160.965L277.742,162.426C282.962,157.54 288.168,152.637 293.386,147.737L292.017,146.279Z" fill="#502719"/>
<path d="M289.361,160.918C284.87,167.133 279.921,173.031 274.577,178.517L276.009,179.913C281.422,174.356 286.435,168.383 290.982,162.09L289.361,160.918Z" fill="#502719"/>
<path d="M289.446,175.282C287.003,177.979 284.564,180.677 282.125,183.374C279.686,186.072 277.248,188.768 274.806,191.465L276.288,192.808C278.731,190.11 281.17,187.413 283.609,184.716C286.047,182.018 288.486,179.321 290.928,176.624L289.446,175.282Z" fill="#502719"/>
<path d="M289.215,83.581C288.489,82.529 287.76,81.481 287.032,80.435C286.304,79.388 285.577,78.344 284.855,77.296L283.208,78.431C283.933,79.483 284.663,80.531 285.39,81.577C286.119,82.624 286.845,83.668 287.568,84.717L289.215,83.581Z" fill="#502719"/>
<path d="M287.281,99.794C285.253,96.028 282.951,92.406 280.391,88.976L278.788,90.172C281.289,93.522 283.538,97.061 285.52,100.742L287.281,99.794Z" fill="#502719"/>
<path d="M284.768,112.597C281.331,108.46 277.893,104.322 274.455,100.199L272.92,101.48C276.356,105.601 279.793,109.738 283.23,113.875L284.768,112.597Z" fill="#502719"/>
<path d="M282.658,126.768C279.507,122.408 276.355,118.046 273.187,113.7L271.571,114.878C274.736,119.22 277.886,123.579 281.037,127.939L282.658,126.768Z" fill="#502719"/>
<path d="M279.188,146.025C276.301,141.823 273.158,137.798 269.807,133.967L268.302,135.283C271.603,139.059 274.698,143.022 277.54,147.158L279.188,146.025Z" fill="#502719"/>
<path d="M277.496,161.388C274.505,157.936 271.531,154.484 268.539,151.015L267.024,152.321C270.015,155.79 272.992,159.244 275.984,162.698L277.496,161.388Z" fill="#502719"/>
<path d="M275.804,178.907C273.033,173.883 269.485,169.3 265.34,165.332L263.957,166.777C267.959,170.607 271.381,175.03 274.053,179.873L275.804,178.907Z" fill="#502719"/>
<path d="M275.477,192.037C271.309,187.853 267.141,183.653 262.987,179.467L261.568,180.876C265.721,185.061 269.891,189.263 274.061,193.449L275.477,192.037Z" fill="#502719"/>
<path d="M323.991,268.024L324.877,267.56L324.877,267.56L323.991,268.024ZM375.183,315.954L374.805,316.88L375.68,315.087L375.183,315.954ZM247.211,186.598C246.76,187.49 246.76,187.49 246.76,187.49C246.76,187.49 246.76,187.49 246.761,187.491C246.762,187.491 246.764,187.492 246.766,187.493C246.771,187.496 246.778,187.5 246.789,187.505C246.809,187.515 246.841,187.532 246.884,187.554C246.969,187.598 247.097,187.666 247.267,187.757C247.607,187.938 248.113,188.214 248.769,188.587C250.081,189.332 251.996,190.464 254.39,192.005C259.18,195.086 265.89,199.801 273.549,206.321C288.868,219.364 307.972,239.624 323.106,268.489L324.877,267.56C309.6,238.422 290.315,217.969 274.846,204.799C267.111,198.213 260.327,193.446 255.472,190.323C253.045,188.761 251.099,187.61 249.757,186.848C249.085,186.467 248.565,186.183 248.211,185.993C248.034,185.898 247.898,185.827 247.806,185.779C247.76,185.755 247.725,185.737 247.701,185.725C247.689,185.719 247.679,185.714 247.673,185.711C247.67,185.709 247.667,185.708 247.665,185.707C247.664,185.706 247.663,185.706 247.663,185.706C247.662,185.705 247.662,185.705 247.211,186.598ZM323.106,268.489C330.885,283.335 338.675,292.515 347.114,299.451C355.521,306.361 364.56,311.027 374.687,316.822L375.68,315.087C365.454,309.234 356.623,304.678 348.384,297.906C340.178,291.161 332.549,282.201 324.877,267.56L323.106,268.489ZM375.562,315.029C375.387,314.957 375.212,314.886 375.037,314.814C374.862,314.742 374.687,314.671 374.512,314.599L373.754,316.45C373.93,316.522 374.105,316.594 374.28,316.665C374.455,316.737 374.63,316.808 374.805,316.88L375.562,315.029Z" fill="#502719"/>
<path d="M283.536,213.954C278.014,213.445 273.24,216.42 269.708,220.701C266.175,224.982 263.724,230.074 260.208,234.354C256.691,238.635 251.551,242.231 246.029,241.754C241.335,241.356 236.815,238.094 232.264,239.335C226.583,240.911 225.072,248.024 221.985,253.036C217.624,260.133 208.236,263.698 200.263,261.279C195.426,259.815 191.018,256.394 185.973,256.633C177.078,257.046 172.479,267.994 164.141,271.113C159.16,272.975 153.575,271.75 148.642,269.777C143.708,267.803 139.03,265.114 133.842,263.937C128.671,262.759 122.624,263.412 119.027,267.31C120.396,260.038 129.339,254.994 136.404,252.782C143.47,250.57 151.331,248.931 156.057,243.234C160.306,238.11 161.356,230.344 166.973,226.78C174.389,222.085 185.146,227.639 192.577,222.945C198.226,219.38 200.327,210.708 206.899,209.482C210.814,208.75 214.776,211.137 218.706,210.501C223.767,209.673 226.615,204.422 230.307,200.858C237.611,193.776 249.387,193.172 258.935,196.672C268.498,200.173 275.914,207.207 283.536,213.954Z" fill="#2E6B68"/>
<path d="M145.172,259.26C155.895,255.486 172.937,247.782 189.414,240.163C205.928,232.528 221.875,224.979 230.495,221.466L229.74,219.614C221.063,223.15 205.041,230.734 188.575,238.348C172.072,245.978 155.124,253.637 144.508,257.374L145.172,259.26ZM230.495,221.466C239.146,217.94 248.136,214.46 257.078,212.778C266.007,211.099 274.819,211.226 283.138,214.853L283.937,213.019C275.134,209.182 265.885,209.087 256.708,210.813C247.545,212.536 238.386,216.09 229.74,219.614L230.495,221.466Z" fill="#502719"/>
<path d="M151.045,263.455C153.847,260.142 156.645,256.82 159.461,253.511L157.938,252.215C155.12,255.526 152.316,258.856 149.518,262.163L151.045,263.455Z" fill="#502719"/>
<path d="M162.098,263.256C166.645,258.211 170.709,252.717 174.211,246.903L172.497,245.871C169.061,251.577 165.073,256.968 160.613,261.917L162.098,263.256Z" fill="#502719"/>
<path d="M175.562,257.225C179.7,252.65 183.175,247.478 185.858,241.919L184.056,241.05C181.456,246.438 178.088,251.451 174.079,255.883L175.562,257.225Z" fill="#502719"/>
<path d="M190.073,252.036C191.64,249.275 193.208,246.514 194.775,243.753C196.342,240.992 197.91,238.231 199.477,235.47L197.738,234.483C196.171,237.244 194.603,240.005 193.036,242.766C191.468,245.526 189.901,248.287 188.333,251.048L190.073,252.036Z" fill="#502719"/>
<path d="M204.343,248.219C206.317,244.79 208.29,241.356 210.263,237.923C212.236,234.49 214.21,231.057 216.183,227.628L214.449,226.63C212.476,230.06 210.502,233.493 208.529,236.926C206.556,240.36 204.583,243.793 202.61,247.222L204.343,248.219Z" fill="#502719"/>
<path d="M220.532,240.638C222.18,237.462 223.823,234.283 225.466,231.104C227.109,227.926 228.752,224.748 230.398,221.574L228.623,220.653C226.976,223.828 225.332,227.007 223.689,230.186C222.046,233.365 220.403,236.543 218.757,239.717L220.532,240.638Z" fill="#502719"/>
<path d="M233.703,234.42C238.522,228.319 242.894,221.882 246.769,215.155L245.037,214.157C241.21,220.798 236.893,227.155 232.133,233.18L233.703,234.42Z" fill="#502719"/>
<path d="M247.657,230.395C249.582,227.309 251.511,224.227 253.441,221.143C255.37,218.06 257.3,214.976 259.226,211.889L257.529,210.83C255.604,213.917 253.675,216.999 251.745,220.082C249.816,223.165 247.886,226.249 245.96,229.337L247.657,230.395Z" fill="#502719"/>
<path d="M158.338,252.251C157.129,251.838 155.924,251.424 154.718,251.01C153.513,250.597 152.307,250.183 151.097,249.769L150.45,251.661C151.659,252.075 152.864,252.488 154.069,252.902C155.274,253.316 156.48,253.73 157.69,254.143L158.338,252.251Z" fill="#502719"/>
<path d="M173.184,245.901C169.095,245.005 165.085,243.81 161.186,242.316L160.47,244.184C164.464,245.714 168.57,246.937 172.756,247.855L173.184,245.901Z" fill="#502719"/>
<path d="M185.204,240.122C182.745,239.032 180.286,237.942 177.828,236.852C175.369,235.762 172.911,234.672 170.452,233.582L169.642,235.41C172.1,236.5 174.559,237.59 177.017,238.68C179.476,239.77 181.934,240.86 184.393,241.951L185.204,240.122Z" fill="#502719"/>
<path d="M198.125,234.161C195.595,233.238 193.069,232.315 190.543,231.392C188.017,230.469 185.49,229.546 182.96,228.623L182.274,230.502C184.804,231.425 187.33,232.348 189.857,233.271C192.383,234.194 194.909,235.117 197.44,236.04L198.125,234.161Z" fill="#502719"/>
<path d="M215.653,225.547C210.901,223.936 206.243,222.041 201.709,219.893L200.853,221.701C205.454,223.881 210.184,225.805 215.012,227.441L215.653,225.547Z" fill="#502719"/>
<path d="M230.186,219.827C226.048,217.902 221.912,215.977 217.776,214.036L216.927,215.847C221.066,217.789 225.205,219.715 229.342,221.64L230.186,219.827Z" fill="#502719"/>
<path d="M246.189,213.284C240.798,212.034 235.61,209.955 230.827,207.142L229.813,208.866C234.769,211.781 240.147,213.936 245.737,215.232L246.189,213.284Z" fill="#502719"/>
<path d="M259.246,209.578C256.66,208.145 254.074,206.713 251.488,205.281C248.902,203.849 246.316,202.417 243.731,200.985L242.762,202.734C245.347,204.166 247.933,205.599 250.519,207.031C253.105,208.463 255.691,209.895 258.277,211.327L259.246,209.578Z" fill="#502719"/>
<path d="M132.923,8.387C127.21,10.567 121.418,12.779 116.405,16.264C111.377,19.749 107.112,24.698 105.68,30.649C104.869,34.039 104.98,37.699 103.484,40.865C101.463,45.146 96.657,48.074 96.005,52.768C95.337,57.606 99.442,62.077 99.028,66.931C98.519,72.93 91.342,77.338 92.265,83.273C93.077,88.477 99.474,90.753 101.956,95.399C103.723,98.693 103.261,102.671 103.707,106.379C104.996,116.834 114.878,125.522 125.412,125.443C122.93,122.26 124.696,117.709 127.242,114.574C129.772,111.439 133.194,108.862 134.658,105.106C135.994,101.701 135.437,97.627 133.226,94.699C131.714,92.71 129.454,91.119 128.929,88.684C128.197,85.31 131.077,82.382 132.637,79.311C134.658,75.365 134.467,70.368 132.159,66.581C130.504,63.86 127.815,61.648 127.147,58.545C125.826,52.482 132.796,46.753 131.125,40.786C130.234,37.635 127.21,35.63 125.476,32.877C122.978,28.93 123.344,23.695 125.253,19.43C127.163,15.197 129.741,11.824 132.923,8.387Z" fill="#2E6B68"/>
<path d="M111.728,97.533L110.769,97.816L110.769,97.816L111.728,97.533ZM118.592,19.487C111.59,45.2 102.777,70.795 110.769,97.816L112.687,97.249C104.893,70.898 113.457,45.954 120.522,20.013L118.592,19.487ZM110.769,97.816C113.387,106.665 117.139,115.127 121.292,123.288L123.074,122.381C118.952,114.279 115.257,105.937 112.687,97.249L110.769,97.816Z" fill="#502719"/>
<path d="M116.486,32.098L115.665,32.67L116.211,33.454L117.019,32.944L116.486,32.098ZM120.555,27.396C119.196,28.877 117.641,30.188 115.952,31.253L117.019,32.944C118.863,31.781 120.554,30.355 122.028,28.749L120.555,27.396ZM117.307,31.527C115.757,29.299 114.319,27.467 112.371,25.519L110.957,26.934C112.796,28.773 114.159,30.506 115.665,32.67L117.307,31.527Z" fill="#502719"/>
<path d="M113.54,42.122L112.595,42.449L113.025,43.695L114.109,42.944L113.54,42.122ZM121.662,35.315C118.767,37.304 115.869,39.294 112.971,41.3L114.109,42.944C117.004,40.941 119.898,38.953 122.795,36.963L121.662,35.315ZM114.485,41.796C113.387,38.614 111.736,35.129 108.933,32.863L107.676,34.418C110.029,36.321 111.529,39.361 112.595,42.449L114.485,41.796Z" fill="#502719"/>
<path d="M111.459,52.479L110.679,53.105L111.229,53.791L111.98,53.332L111.459,52.479ZM122.132,43.596C118.604,46.54 114.857,49.233 110.937,51.625L111.98,53.332C115.985,50.888 119.812,48.138 123.414,45.131L122.132,43.596ZM112.238,51.853C111.161,50.51 110.045,49.205 108.94,47.914C107.833,46.619 106.737,45.338 105.682,44.024L104.122,45.276C105.2,46.619 106.316,47.923 107.421,49.214C108.528,50.509 109.624,51.79 110.679,53.105L112.238,51.853Z" fill="#502719"/>
<path d="M109.545,61.427L108.946,62.227L109.443,62.6L109.998,62.318L109.545,61.427ZM121.182,52.826C117.413,55.778 113.362,58.369 109.093,60.535L109.998,62.318C114.385,60.092 118.546,57.431 122.415,54.401L121.182,52.826ZM110.145,60.626C107.192,58.416 105.067,55.808 102.374,53.001L100.931,54.385C103.489,57.052 105.819,59.886 108.946,62.227L110.145,60.626Z" fill="#502719"/>
<path d="M108.527,73.5L107.718,74.088L108.299,74.887L109.105,74.316L108.527,73.5ZM120.919,63.533C116.594,66.586 112.262,69.628 107.949,72.684L109.105,74.316C113.417,71.261 117.741,68.225 122.072,65.167L120.919,63.533ZM109.335,72.912C106.832,69.472 104.045,66.315 101.076,63.299L99.651,64.701C102.57,67.668 105.288,70.749 107.718,74.088L109.335,72.912Z" fill="#502719"/>
<path d="M109.293,86.519L108.643,87.279L109.298,87.839L109.949,87.274L109.293,86.519ZM122,72.733C117.81,77.334 113.335,81.682 108.637,85.764L109.949,87.274C114.703,83.144 119.234,78.74 123.479,74.08L122,72.733ZM109.943,85.758C106.822,83.091 103.249,80.714 99.949,78.425L98.809,80.068C102.16,82.393 105.621,84.695 108.643,87.279L109.943,85.758Z" fill="#502719"/>
<path d="M111.201,98.231L110.696,99.094L111.41,99.512L111.954,98.89L111.201,98.231ZM122.383,83.92C120.394,86.196 118.405,88.471 116.416,90.747C114.426,93.022 112.437,95.298 110.448,97.573L111.954,98.89C113.943,96.614 115.932,94.338 117.921,92.063C119.911,89.787 121.9,87.512 123.889,85.236L122.383,83.92ZM111.706,97.369C108.886,95.717 106.112,93.666 103.519,91.594L102.27,93.157C104.896,95.254 107.756,97.373 110.696,99.094L111.706,97.369Z" fill="#502719"/>
<path d="M115.277,108.956L114.835,109.853L115.671,110.265L116.141,109.459L115.277,108.956ZM124.489,94.133C120.728,98.602 117.353,103.407 114.413,108.452L116.141,109.459C119.025,104.511 122.333,99.801 126.019,95.421L124.489,94.133ZM115.719,108.059C112.644,106.545 109.563,104.823 106.823,102.846L105.653,104.468C108.515,106.533 111.704,108.311 114.835,109.853L115.719,108.059Z" fill="#502719"/>
<path d="M8.18,153.845C9.214,147.814 10.264,141.719 12.715,136.102C15.165,130.5 19.191,125.344 24.761,122.798C27.944,121.35 31.54,120.746 34.356,118.677C38.16,115.86 40.117,110.593 44.589,109.05C49.203,107.458 54.391,110.609 59.069,109.272C64.862,107.601 67.79,99.725 73.805,99.486C79.056,99.279 82.541,105.119 87.57,106.663C91.134,107.761 94.953,106.535 98.677,106.265C109.179,105.501 119.618,113.521 121.576,123.88C117.979,122.066 113.858,124.676 111.264,127.779C108.67,130.866 106.808,134.717 103.419,136.897C100.332,138.87 96.226,139.109 92.932,137.502C90.689,136.404 88.699,134.494 86.201,134.447C82.748,134.383 80.441,137.772 77.719,139.905C74.234,142.658 69.301,143.437 65.132,141.91C62.141,140.812 59.451,138.6 56.269,138.552C50.079,138.441 45.798,146.381 39.624,145.888C36.362,145.633 33.815,143.056 30.776,141.878C26.416,140.191 21.356,141.56 17.537,144.249C13.733,146.891 10.933,150.073 8.18,153.845Z" fill="#2E6B68"/>
<path d="M91.549,115.81L91.457,116.806L91.457,116.806L91.549,115.81ZM17.187,139.43C41.273,127.474 64.084,114.26 91.457,116.806L91.642,114.814C63.573,112.204 40.173,125.788 16.298,137.638L17.187,139.43ZM91.457,116.806C100.475,117.641 109.369,119.661 118.123,122.135L118.666,120.21C109.852,117.719 100.828,115.666 91.641,114.814L91.457,116.806Z" fill="#502719"/>
<path d="M28.262,133.139L29.193,133.503L29.541,132.611L28.666,132.225L28.262,133.139ZM26.044,139.222C27.336,137.465 28.397,135.542 29.193,133.503L27.33,132.776C26.598,134.651 25.622,136.42 24.433,138.037L26.044,139.222ZM28.666,132.225C26.246,131.156 24.283,130.165 22.138,128.715L21.018,130.371C23.297,131.913 25.376,132.958 27.858,134.054L28.666,132.225Z" fill="#502719"/>
<path d="M37.525,128.321L38.442,128.719L38.967,127.508L37.659,127.33L37.525,128.321ZM34.257,138.394C34.957,136.778 35.654,135.166 36.35,133.555C37.046,131.944 37.742,130.333 38.442,128.719L36.607,127.923C35.907,129.539 35.21,131.151 34.514,132.762C33.818,134.373 33.122,135.984 32.422,137.598L34.257,138.394ZM37.659,127.33C34.435,126.892 31.148,126 28.823,124.067L27.544,125.605C30.311,127.905 34.058,128.859 37.39,129.312L37.659,127.33Z" fill="#502719"/>
<path d="M47.291,124.28L48.229,124.626L48.534,123.8L47.753,123.394L47.291,124.28ZM42.392,137.427C44.642,133.312 46.604,129.035 48.229,124.626L46.353,123.935C44.763,128.247 42.843,132.435 40.637,136.467L42.392,137.427ZM47.753,123.394C46.258,122.615 44.788,121.787 43.302,120.95C41.821,120.116 40.323,119.273 38.794,118.476L37.87,120.25C39.365,121.029 40.835,121.856 42.321,122.693C43.802,123.527 45.3,124.371 46.829,125.167L47.753,123.394Z" fill="#502719"/>
<path d="M55.696,120.664L56.658,120.937L56.828,120.337L56.365,119.92L55.696,120.664ZM51.289,134.643C53.514,130.258 55.32,125.662 56.658,120.937L54.734,120.391C53.431,124.991 51.673,129.466 49.505,133.738L51.289,134.643ZM56.365,119.92C53.468,117.318 50.236,115.57 47.118,113.569L46.038,115.252C49.317,117.356 52.291,118.95 55.028,121.408L56.365,119.92Z" fill="#502719"/>
<path d="M67.361,117.327L68.274,117.736L68.678,116.835L67.783,116.42L67.361,117.327ZM61.798,132.232C63.964,127.39 66.109,122.558 68.274,117.736L66.449,116.917C64.285,121.738 62.134,126.582 59.972,131.415L61.798,132.232ZM67.783,116.42C64.035,114.679 60.483,112.605 57.011,110.317L55.911,111.987C59.441,114.314 63.081,116.441 66.94,118.234L67.783,116.42Z" fill="#502719"/>
<path d="M80.264,115.541L81.133,116.036L81.559,115.289L80.883,114.756L80.264,115.541ZM70.804,131.874C74.551,126.814 78.01,121.513 81.133,116.036L79.395,115.046C76.312,120.453 72.896,125.687 69.196,130.684L70.804,131.874ZM80.883,114.756C77.767,112.297 74.842,109.34 71.903,106.514L70.516,107.955C73.401,110.73 76.428,113.788 79.645,116.326L80.883,114.756Z" fill="#502719"/>
<path d="M92.118,115.158L92.91,115.769L93.415,115.114L92.867,114.495L92.118,115.158ZM81.835,130.122C83.681,127.728 85.526,125.337 87.372,122.946C89.218,120.555 91.064,118.164 92.91,115.769L91.326,114.548C89.481,116.942 87.635,119.333 85.789,121.724C83.943,124.115 82.097,126.506 80.251,128.901L81.835,130.122ZM92.867,114.495C90.61,111.946 87.975,109.54 85.411,107.376L84.122,108.905C86.65,111.038 89.203,113.374 91.37,115.821L92.867,114.495Z" fill="#502719"/>
<path d="M103.436,117.099L104.096,117.85L104.799,117.232L104.229,116.49L103.436,117.099ZM92.234,130.247C95.808,125.775 99.793,121.632 104.096,117.85L102.775,116.348C98.389,120.204 94.322,124.431 90.672,128.998L92.234,130.247ZM104.229,116.49C102.112,113.731 99.767,110.947 97.181,108.524L95.814,109.984C98.288,112.303 100.559,114.993 102.642,117.708L104.229,116.49Z" fill="#502719"/>
<path d="M233.935,180.262L234.315,179.337L234.257,179.313L234.196,179.297L233.935,180.262ZM116.976,121.349C146.839,154.835 191.078,169.707 233.674,181.227L234.196,179.297C191.594,167.775 147.898,153.017 118.469,120.018L116.976,121.349ZM233.555,181.187C235.806,182.112 237.797,183.323 240.006,184.556C242.191,185.776 244.537,186.984 247.365,187.781L247.907,185.855C245.31,185.124 243.128,184.009 240.981,182.81C238.857,181.624 236.711,180.321 234.315,179.337L233.555,181.187Z" fill="#502719"/>
<path d="M121.494,124.089C123.101,126.651 126.968,126.381 129.53,124.789C132.092,123.182 132.872,119.809 131.265,117.247C129.657,114.685 126.284,113.905 123.722,115.512C121.16,117.119 119.903,121.527 121.494,124.089Z" fill="#EA6760"/>
<path d="M116.88,123.836C114.923,121.544 111.135,122.356 108.828,124.313C106.536,126.27 106.25,129.724 108.207,132.015C110.165,134.307 113.618,134.593 115.909,132.636C118.217,130.694 118.837,126.143 116.88,123.836Z" fill="#EA6760"/>
<path d="M122.974,126.207C120.062,127.002 119.186,130.774 119.966,133.686C120.746,136.598 123.753,138.333 126.665,137.537C129.577,136.741 131.312,133.75 130.516,130.838C129.721,127.925 125.886,125.427 122.974,126.207Z" fill="#D14946"/>
<path d="M113.728,120.256C115.033,122.977 118.9,123.168 121.621,121.863C124.342,120.558 125.503,117.296 124.199,114.575C122.894,111.854 119.632,110.692 116.91,111.997C114.189,113.302 112.423,117.535 113.728,120.256Z" fill="#D14946"/>
<path d="M129.162,124.536C127.984,127.32 130.435,130.328 133.22,131.506C136.005,132.683 139.203,131.378 140.381,128.593C141.558,125.809 140.253,122.61 137.469,121.433C134.684,120.255 130.339,121.751 129.162,124.536Z" fill="#D14946"/>
<path d="M122.034,115.546C121.238,116.405 119.902,115.18 120.697,114.321C121.493,113.445 122.83,114.671 122.034,115.546Z" fill="#502719"/>
<path d="M129.167,119.045C128.371,119.904 127.034,118.679 127.83,117.82C128.626,116.96 129.962,118.186 129.167,119.045Z" fill="#502719"/>
<path d="M138.569,126.782C138.553,126.798 138.537,126.814 138.521,126.846C138.441,126.941 138.346,127.005 138.235,127.053C138.139,127.116 138.012,127.148 137.9,127.148C137.773,127.164 137.662,127.132 137.55,127.084C137.439,127.053 137.328,126.989 137.232,126.909C137.184,126.846 137.121,126.782 137.073,126.718C136.993,126.575 136.946,126.432 136.93,126.273C136.93,126.193 136.946,126.114 136.946,126.034C136.977,125.875 137.057,125.732 137.168,125.605C137.184,125.589 137.2,125.573 137.216,125.541C137.296,125.445 137.391,125.382 137.503,125.334C137.598,125.27 137.725,125.239 137.837,125.239C137.964,125.223 138.075,125.254 138.187,125.302C138.298,125.334 138.41,125.398 138.505,125.477C138.553,125.541 138.616,125.605 138.664,125.668C138.744,125.811 138.792,125.955 138.807,126.114C138.807,126.193 138.792,126.273 138.792,126.352C138.76,126.527 138.68,126.671 138.569,126.782Z" fill="#502719"/>
<path d="M124.743,134.386C124.759,134.37 124.774,134.354 124.79,134.322C124.87,134.227 124.965,134.163 125.077,134.115C125.172,134.052 125.3,134.02 125.411,134.02C125.538,134.004 125.65,134.036 125.761,134.083C125.872,134.115 125.984,134.179 126.079,134.258C126.127,134.322 126.191,134.386 126.238,134.449C126.318,134.593 126.366,134.736 126.382,134.895C126.382,134.975 126.366,135.054 126.366,135.134C126.334,135.293 126.254,135.436 126.143,135.563C126.127,135.579 126.111,135.595 126.095,135.627C126.016,135.722 125.92,135.786 125.809,135.834C125.713,135.898 125.586,135.929 125.475,135.929C125.347,135.945 125.236,135.913 125.125,135.866C125.013,135.834 124.902,135.77 124.806,135.691C124.759,135.627 124.695,135.563 124.647,135.5C124.568,135.356 124.52,135.213 124.504,135.054C124.504,134.975 124.52,134.895 124.52,134.815C124.568,134.64 124.631,134.513 124.743,134.386Z" fill="#502719"/>
<path d="M109.986,129.628C110.113,129.532 110.304,129.484 110.448,129.484C110.527,129.484 110.607,129.5 110.686,129.5C110.702,129.5 110.909,129.58 110.909,129.58C110.925,129.58 111.1,129.707 111.116,129.723C111.18,129.771 111.243,129.85 111.275,129.914C111.291,129.93 111.371,130.105 111.371,130.137C111.402,130.216 111.402,130.312 111.418,130.391C111.418,130.471 111.418,130.566 111.402,130.646C111.402,130.662 111.323,130.869 111.323,130.869L111.18,131.076C111.164,131.092 111.005,131.219 110.989,131.235C110.877,131.314 110.67,131.378 110.543,131.378C110.527,131.378 110.32,131.362 110.304,131.362C110.273,131.346 110.177,131.314 110.193,131.314C110.193,131.314 110.113,131.283 110.082,131.267C109.97,131.219 109.875,131.139 109.795,131.028C109.716,130.948 109.652,130.837 109.62,130.726C109.588,130.614 109.572,130.503 109.588,130.376C109.588,130.264 109.62,130.137 109.684,130.041C109.731,129.978 109.779,129.914 109.827,129.834C109.938,129.707 110.066,129.628 110.225,129.58C110.304,129.564 110.384,129.548 110.448,129.532C110.607,129.532 110.766,129.564 110.909,129.628C110.829,129.596 110.766,129.58 110.686,129.548C110.607,129.548 110.527,129.532 110.448,129.532C110.368,129.548 110.288,129.564 110.225,129.58C110.161,129.612 110.082,129.644 110.018,129.675C109.954,129.723 109.891,129.787 109.827,129.834C109.779,129.898 109.731,129.962 109.684,130.041C109.684,130.041 109.684,130.041 109.684,130.025C109.652,130.105 109.636,130.169 109.604,130.248L109.604,130.232C109.604,130.312 109.588,130.391 109.588,130.471L109.588,130.455C109.604,130.535 109.62,130.614 109.636,130.678L109.636,130.662C109.668,130.726 109.7,130.805 109.731,130.869C109.731,130.869 109.731,130.869 109.731,130.853C109.779,130.917 109.843,130.98 109.891,131.044C109.954,131.092 110.018,131.139 110.097,131.187C110.177,131.219 110.241,131.235 110.32,131.267C110.4,131.267 110.479,131.283 110.559,131.283C110.639,131.267 110.718,131.251 110.782,131.235C110.845,131.203 110.925,131.171 110.989,131.139C110.893,131.203 110.782,131.251 110.654,131.251C110.543,131.283 110.432,131.283 110.304,131.251C110.177,131.235 110.082,131.187 109.986,131.108C109.875,131.044 109.795,130.964 109.731,130.853C109.7,130.789 109.668,130.71 109.636,130.646C109.588,130.487 109.588,130.344 109.62,130.185C109.652,130.105 109.668,130.041 109.7,129.962C109.747,129.834 109.859,129.707 109.986,129.628Z" fill="#502719"/>
<path d="M282.837,212.722C285.717,213.614 286.449,217.433 285.558,220.313C284.667,223.193 281.596,224.816 278.715,223.909C275.835,223.018 274.212,219.947 275.119,217.067C276.01,214.186 279.957,211.831 282.837,212.722Z" fill="#EA6760"/>
<path d="M281.407,208.314C278.686,207.01 278.511,203.143 279.816,200.406C281.12,197.684 284.383,196.539 287.104,197.844C289.825,199.148 290.971,202.411 289.666,205.132C288.377,207.869 284.128,209.619 281.407,208.314Z" fill="#EA6760"/>
<path d="M285.258,213.615C285.274,210.591 288.711,208.777 291.719,208.793C294.742,208.809 297.177,211.275 297.161,214.299C297.145,217.322 294.678,219.757 291.655,219.741C288.647,219.709 285.242,216.622 285.258,213.615Z" fill="#D14946"/>
<path d="M277.143,206.181C280.103,206.738 281.28,210.445 280.723,213.405C280.166,216.381 277.302,218.322 274.342,217.765C271.366,217.208 269.425,214.344 269.982,211.384C270.539,208.424 274.183,205.624 277.143,206.181Z" fill="#D14946"/>
<path d="M285.228,220.027C287.615,218.181 291.164,219.773 292.994,222.16C294.84,224.547 294.394,227.984 292.007,229.83C289.62,231.676 286.183,231.23 284.337,228.843C282.507,226.44 282.841,221.857 285.228,220.027Z" fill="#D14946"/>
<path d="M274.711,215.427C275.347,214.44 273.82,213.453 273.183,214.44C272.547,215.427 274.074,216.413 274.711,215.427Z" fill="#502719"/>
<path d="M279.93,221.427C280.566,220.44 279.039,219.453 278.402,220.44C277.766,221.427 279.293,222.413 279.93,221.427Z" fill="#502719"/>
<path d="M289.808,228.541C289.824,228.525 289.84,228.493 289.855,228.477C289.919,228.381 289.967,228.254 289.983,228.143C290.015,228.031 290.015,227.92 289.983,227.793C289.967,227.681 289.919,227.57 289.84,227.474C289.776,227.363 289.696,227.283 289.585,227.22C289.505,227.188 289.442,227.156 289.362,227.108C289.203,227.061 289.06,227.061 288.901,227.092C288.821,227.124 288.757,227.14 288.678,227.172C288.535,227.252 288.407,227.347 288.328,227.49C288.312,227.506 288.296,227.538 288.28,227.554C288.216,227.649 288.169,227.777 288.153,227.888C288.121,228 288.121,228.111 288.153,228.238C288.169,228.35 288.216,228.461 288.296,228.556C288.36,228.668 288.439,228.747 288.551,228.811C288.63,228.843 288.694,228.875 288.773,228.922C288.933,228.97 289.076,228.97 289.235,228.938C289.314,228.907 289.378,228.891 289.458,228.859C289.601,228.779 289.712,228.684 289.808,228.541Z" fill="#502719"/>
<path d="M293.613,213.232C293.597,213.248 293.581,213.28 293.565,213.296C293.502,213.392 293.454,213.519 293.438,213.63C293.406,213.742 293.406,213.869 293.438,213.98C293.454,214.092 293.502,214.203 293.581,214.299C293.645,214.41 293.724,214.49 293.836,214.553C293.915,214.585 293.979,214.617 294.059,214.665C294.218,214.712 294.361,214.712 294.52,214.681C294.6,214.649 294.663,214.633 294.743,214.601C294.886,214.521 295.013,214.426 295.093,214.283C295.109,214.267 295.125,214.235 295.141,214.219C295.22,214.124 295.252,213.996 295.268,213.885C295.3,213.774 295.3,213.662 295.268,213.535C295.252,213.423 295.204,213.312 295.125,213.217C295.061,213.105 294.982,213.026 294.87,212.962C294.791,212.93 294.727,212.898 294.647,212.851C294.488,212.803 294.345,212.803 294.186,212.835C294.106,212.867 294.043,212.882 293.963,212.914C293.82,212.978 293.708,213.089 293.613,213.232Z" fill="#502719"/>
<path d="M285.241,200.184C285.193,200.327 285.193,200.518 285.225,200.661C285.257,200.741 285.273,200.804 285.305,200.884L285.432,201.075C285.448,201.091 285.607,201.218 285.623,201.234C285.687,201.282 285.766,201.313 285.846,201.345C285.862,201.345 286.069,201.377 286.085,201.393C286.164,201.393 286.26,201.393 286.339,201.377C286.419,201.361 286.498,201.329 286.578,201.298C286.594,201.298 286.769,201.17 286.769,201.154L286.928,200.963C286.944,200.947 287.023,200.756 287.039,200.741C287.087,200.613 287.087,200.406 287.055,200.263C287.055,200.247 286.976,200.056 286.976,200.04C286.96,200.009 286.912,199.929 286.912,199.945C286.912,199.945 286.864,199.865 286.848,199.849C286.769,199.754 286.673,199.674 286.546,199.643C286.435,199.579 286.323,199.547 286.196,199.547C286.069,199.531 285.957,199.563 285.862,199.611C285.75,199.643 285.639,199.706 285.559,199.786C285.512,199.849 285.448,199.913 285.4,199.977C285.305,200.12 285.257,200.263 285.257,200.422C285.257,200.502 285.273,200.581 285.273,200.661C285.305,200.82 285.384,200.947 285.48,201.075C285.432,201.011 285.384,200.947 285.353,200.884C285.321,200.804 285.305,200.741 285.273,200.661C285.273,200.581 285.257,200.502 285.257,200.422C285.273,200.343 285.289,200.263 285.305,200.184C285.337,200.104 285.369,200.04 285.416,199.961C285.464,199.897 285.528,199.834 285.575,199.77C285.639,199.722 285.703,199.674 285.766,199.643L285.75,199.643C285.83,199.611 285.894,199.595 285.973,199.563L285.957,199.563C286.037,199.563 286.116,199.547 286.196,199.547L286.18,199.547C286.26,199.563 286.339,199.579 286.419,199.595C286.419,199.595 286.419,199.595 286.403,199.595C286.482,199.627 286.546,199.659 286.626,199.706C286.689,199.754 286.753,199.818 286.817,199.865C286.864,199.929 286.912,199.993 286.944,200.056C286.976,200.136 286.992,200.2 287.023,200.279C287.023,200.359 287.039,200.438 287.039,200.518C287.023,200.597 287.008,200.677 286.992,200.757C286.992,200.757 286.992,200.756 286.992,200.741C287.039,200.629 287.039,200.502 287.023,200.391C287.023,200.279 286.992,200.168 286.928,200.056C286.88,199.945 286.801,199.849 286.705,199.786C286.626,199.69 286.514,199.643 286.387,199.611C286.307,199.595 286.228,199.579 286.148,199.563C285.989,199.563 285.846,199.595 285.703,199.658C285.639,199.706 285.575,199.754 285.512,199.786C285.384,199.897 285.289,200.025 285.241,200.184Z" fill="#502719"/>
<path d="M78.364,270.244C84.376,270.244 89.249,266.446 89.249,261.762C89.249,257.078 84.376,253.28 78.364,253.28C72.353,253.28 67.48,257.078 67.48,261.762C67.48,266.446 72.353,270.244 78.364,270.244Z" transform="rotate(-9.234 78.364 261.762)" fill="#89582B"/>
<path d="M74.315,262.653L74.507,263.634L74.511,263.633L74.315,262.653ZM80.139,260.982L79.903,260.01L79.902,260.01L80.139,260.982ZM67.674,263.515C69.915,264.041 72.254,264.075 74.507,263.634L74.123,261.671C72.143,262.059 70.091,262.028 68.131,261.568L67.674,263.515ZM74.511,263.633C75.567,263.422 76.581,263.108 77.544,262.8C78.523,262.486 79.441,262.182 80.376,261.954L79.902,260.01C78.881,260.26 77.881,260.592 76.934,260.895C75.972,261.203 75.053,261.485 74.119,261.672L74.511,263.633ZM80.376,261.954C83.148,261.28 85.371,261.125 88.078,261.75L88.528,259.801C85.442,259.089 82.892,259.284 79.903,260.01L80.376,261.954Z" fill="#502719"/>
<path d="M72.398,59.202C77.268,62.734 78.986,68.67 76.233,72.457C73.48,76.244 67.306,76.467 62.437,72.935C57.567,69.402 55.849,63.466 58.602,59.679C61.355,55.892 67.529,55.685 72.398,59.202Z" fill="#A06B35"/>
<path d="M63.774,64.151L63.286,65.024L63.287,65.024L63.774,64.151ZM69.296,66.665L69.748,65.773L69.743,65.771L69.296,66.665ZM58.163,60.494C59.52,62.344 61.283,63.904 63.286,65.024L64.263,63.278C62.51,62.298 60.963,60.93 59.775,59.311L58.163,60.494ZM63.287,65.024C64.223,65.547 65.196,65.968 66.13,66.36C67.079,66.759 67.979,67.125 68.849,67.56L69.743,65.771C68.799,65.299 67.822,64.901 66.905,64.516C65.973,64.125 65.092,63.742 64.262,63.278L63.287,65.024ZM68.845,67.558C71.384,68.842 73.175,70.184 74.828,72.403L76.432,71.208C74.552,68.684 72.492,67.162 69.748,65.773L68.845,67.558Z" fill="#502719"/>
<path d="M172.406,15.778C177.434,12.484 179.423,6.628 176.862,2.713C174.3,-1.201 168.141,-1.711 163.113,1.583C158.084,4.877 156.095,10.733 158.657,14.648C161.219,18.563 167.377,19.072 172.406,15.778Z" fill="#EFB16F"/>
<path d="M164.02,10.414L163.573,9.519L163.57,9.521L164.02,10.414ZM169.653,8.154L169.245,7.241L169.244,7.241L169.653,8.154ZM159.801,15.069C161.064,13.508 162.671,12.214 164.47,11.307L163.57,9.521C161.518,10.555 159.688,12.029 158.246,13.81L159.801,15.069ZM164.467,11.308C165.319,10.882 166.219,10.541 167.169,10.193C168.103,9.851 169.099,9.498 170.062,9.066L169.244,7.241C168.362,7.637 167.448,7.961 166.481,8.315C165.529,8.663 164.535,9.038 163.573,9.519L164.467,11.308ZM170.061,9.067C172.872,7.81 175,6.389 176.999,3.95L175.452,2.683C173.695,4.826 171.845,6.079 169.245,7.241L170.061,9.067Z" fill="#502719"/>
<path d="M172.406,316.532C177.434,313.238 179.423,307.382 176.862,303.467C174.3,299.552 168.141,299.043 163.113,302.337C158.084,305.631 156.095,311.487 158.657,315.402C161.219,319.316 167.377,319.826 172.406,316.532Z" fill="#EFB16F"/>
<path d="M164.02,311.183L163.573,310.289L163.57,310.29L164.02,311.183ZM169.653,308.923L169.245,308.011L169.244,308.011L169.653,308.923ZM159.801,315.838C161.064,314.278 162.671,312.983 164.47,312.076L163.57,310.29C161.519,311.324 159.688,312.799 158.246,314.58L159.801,315.838ZM164.467,312.078C165.319,311.652 166.219,311.31 167.169,310.963C168.103,310.62 169.099,310.268 170.062,309.836L169.244,308.011C168.362,308.407 167.448,308.73 166.481,309.084C165.529,309.433 164.535,309.808 163.573,310.289L164.467,312.078ZM170.061,309.836C172.872,308.58 175,307.159 176.999,304.72L175.452,303.452C173.695,305.596 171.845,306.848 169.245,308.011L170.061,309.836Z" fill="#502719"/>
</svg>
