<svg width="20" height="21" viewBox="0 0 20 21" fill="none" xmlns="http://www.w3.org/2000/svg">
<path d="M18.334 10.5003V17.167C18.334 17.609 18.1584 18.0329 17.8458 18.3455C17.5333 18.6581 17.1093 18.8337 16.6673 18.8337H3.33398C2.89196 18.8337 2.46803 18.6581 2.15547 18.3455C1.84291 18.0329 1.66732 17.609 1.66732 17.167V10.5003C1.4463 10.5003 1.23434 10.4125 1.07806 10.2562C0.921782 10.1 0.833984 9.88801 0.833984 9.66699V7.16699C0.833984 6.72496 1.00958 6.30104 1.32214 5.98848C1.6347 5.67592 2.05862 5.50033 2.50065 5.50033H5.14232C5.04814 5.2326 5.00023 4.9508 5.00065 4.66699C5.00065 4.00395 5.26404 3.36807 5.73288 2.89923C6.20173 2.43038 6.83761 2.16699 7.50065 2.16699C8.33398 2.16699 9.06732 2.58366 9.52565 3.20033V3.19199L10.0007 3.83366L10.4757 3.19199V3.20033C10.934 2.58366 11.6673 2.16699 12.5007 2.16699C13.1637 2.16699 13.7996 2.43038 14.2684 2.89923C14.7373 3.36807 15.0007 4.00395 15.0007 4.66699C15.0011 4.9508 14.9532 5.2326 14.859 5.50033H17.5007C17.9427 5.50033 18.3666 5.67592 18.6792 5.98848C18.9917 6.30104 19.1673 6.72496 19.1673 7.16699V9.66699C19.1673 9.88801 19.0795 10.1 18.9232 10.2562C18.767 10.4125 18.555 10.5003 18.334 10.5003ZM3.33398 17.167H9.16732V10.5003H3.33398V17.167ZM16.6673 17.167V10.5003H10.834V17.167H16.6673ZM7.50065 3.83366C7.27964 3.83366 7.06768 3.92146 6.9114 4.07774C6.75512 4.23402 6.66732 4.44598 6.66732 4.66699C6.66732 4.88801 6.75512 5.09997 6.9114 5.25625C7.06768 5.41253 7.27964 5.50033 7.50065 5.50033C7.72166 5.50033 7.93363 5.41253 8.08991 5.25625C8.24619 5.09997 8.33398 4.88801 8.33398 4.66699C8.33398 4.44598 8.24619 4.23402 8.08991 4.07774C7.93363 3.92146 7.72166 3.83366 7.50065 3.83366ZM12.5007 3.83366C12.2796 3.83366 12.0677 3.92146 11.9114 4.07774C11.7551 4.23402 11.6673 4.44598 11.6673 4.66699C11.6673 4.88801 11.7551 5.09997 11.9114 5.25625C12.0677 5.41253 12.2796 5.50033 12.5007 5.50033C12.7217 5.50033 12.9336 5.41253 13.0899 5.25625C13.2462 5.09997 13.334 4.88801 13.334 4.66699C13.334 4.44598 13.2462 4.23402 13.0899 4.07774C12.9336 3.92146 12.7217 3.83366 12.5007 3.83366ZM2.50065 7.16699V8.83366H9.16732V7.16699H2.50065ZM10.834 7.16699V8.83366H17.5007V7.16699H10.834Z" fill="#FF5F00"/>
</svg>
