<svg width="61" height="62" viewBox="0 0 61 62" fill="none" xmlns="http://www.w3.org/2000/svg">
<path d="M54.4698 58.6995C54.4798 59.0495 54.4998 59.3895 54.5098 59.7395C49.7498 60.6295 44.8298 61.1895 40.0698 60.2995C35.3098 59.4095 30.6698 56.8795 28.1598 52.7295C25.8698 48.9595 25.4298 44.0995 22.3898 40.9195C19.5998 37.9995 15.2398 37.1495 12.1798 34.5095C10.1098 32.7295 8.76977 30.2195 7.98977 27.5995C7.20977 24.9795 6.94977 22.2395 6.75977 19.5195C13.1698 28.6995 26.4798 30.7895 32.5798 40.1695C34.7998 43.5895 35.9498 47.8495 39.1298 50.3995C42.5398 53.1295 47.6098 53.2895 50.6798 56.3995C51.2798 57.0095 51.7898 57.7095 52.4798 58.2095C53.1798 58.7195 53.7198 59.0995 54.4698 58.6995Z" fill="#502719"/>
<path d="M59.2097 61.6303C60.2597 61.6703 60.6497 60.2903 59.7697 59.7303C56.1497 57.4203 53.5797 53.4003 53.3397 49.0903C53.2097 46.7703 53.6497 44.3503 52.7897 42.1903C50.8497 37.3403 47.8297 38.7603 46.7097 36.7703C44.8297 33.4403 47.3597 28.5503 44.5697 25.9203C41.9697 23.4703 35.7397 23.9803 32.2997 23.0403C27.1197 21.6203 28.1997 17.6003 22.9197 16.6003C20.0297 16.0503 14.6697 16.0103 11.7297 16.0903C8.78969 16.1703 5.41969 15.2403 4.17969 12.5703C4.65969 15.8403 5.62969 19.0203 6.71969 22.1403C7.80969 25.2603 9.55969 28.2303 12.1597 30.2703C15.8497 33.1603 20.8697 33.9203 24.4997 36.8803C27.7297 39.5103 29.4297 43.5203 31.6197 47.0703C35.1597 52.8103 40.4197 57.7003 46.8597 59.6803C50.8797 60.9203 55.0497 61.4903 59.2097 61.6303Z" fill="#2E6B68"/>
<path d="M1 1C1.74 9.35 5.31 17.89 12.31 22.5C15.77 24.79 19.83 25.97 23.73 27.4C27.63 28.83 31.57 30.61 34.29 33.75C36.6 36.42 37.83 39.83 39.01 43.15C40.19 46.48 41.42 49.89 43.73 52.56C46.04 55.23 49.7 57.03 53.12 56.13" stroke="#502719" stroke-miterlimit="10"/>
<path d="M23.0408 19.6992C18.3808 19.7092 13.7208 19.7192 9.05078 19.7292C10.3708 23.6792 13.0208 27.2292 16.7008 29.1792" stroke="#502719" stroke-miterlimit="10"/>
<path d="M33.6693 25.5898C28.7093 25.5898 23.7393 25.5898 18.7793 25.5898C19.8893 29.0298 22.4693 32.4199 25.2193 34.7699" stroke="#502719" stroke-miterlimit="10"/>
<path d="M42.9405 31.7297C39.0405 31.3797 35.1305 31.0297 31.2305 30.6797C31.2705 34.8297 31.5305 39.0597 32.4305 43.0997" stroke="#502719" stroke-miterlimit="10"/>
<path d="M48.6606 41.2896C44.8406 40.6896 41.0706 39.7896 37.3906 38.5996C37.5106 42.3896 37.5306 46.4296 37.9106 50.1996" stroke="#502719" stroke-miterlimit="10"/>
<path d="M51.6502 49.4102C48.3202 49.4402 44.9902 49.4602 41.6602 49.4902C42.3702 53.4302 45.2302 56.8902 49.0102 58.2102" stroke="#502719" stroke-miterlimit="10"/>
</svg>
