<svg width="68" height="70" viewBox="0 0 68 70" fill="none" xmlns="http://www.w3.org/2000/svg">
<path d="M44.5002 48.5865C46.9502 46.9465 49.8402 45.6465 51.2802 43.0765C52.6301 40.6665 52.3702 37.6965 53.0402 35.0165C53.8402 31.8065 55.9502 29.0765 58.2202 26.6665C60.4902 24.2565 62.9902 22.0265 64.8502 19.2865C65.6002 18.1865 66.4202 16.5665 67.0901 14.8265C67.6901 10.0565 67.4201 5.04653 66.1201 0.416534C65.9801 -0.083466 65.2802 -0.153466 65.0502 0.316534C64.3902 1.66653 63.0102 2.78653 61.6502 3.55653C59.6302 4.70653 57.2702 5.77653 56.4002 7.93653C55.4502 10.2865 56.6001 13.2865 55.1201 15.3465C54.0501 16.8365 52.0202 17.2265 50.1902 17.3365C48.3602 17.4565 46.3902 17.4665 44.9102 18.5465C41.7702 20.8165 42.8002 26.1265 40.0502 28.8565C38.2002 30.6865 35.1802 30.7965 33.2202 32.5065C29.6902 35.5665 31.4502 41.5965 29.0602 45.6165C27.9802 47.4365 26.1402 48.6565 24.6802 50.1865C21.2102 53.8365 19.6802 60.3665 18.6602 65.2965C23.9802 66.9265 30.2002 65.1365 34.8502 62.0765C34.9002 62.0465 34.9502 62.0065 35.0002 61.9665C36.4002 56.5665 39.8402 51.6965 44.5002 48.5865Z" fill="#2E6B68"/>
<path d="M64.8502 19.2857C62.9902 22.0257 60.4902 24.2557 58.2202 26.6657C55.9502 29.0757 53.8402 31.8057 53.0402 35.0157C52.3702 37.6957 52.6302 40.6657 51.2802 43.0757C49.8402 45.6457 46.9402 46.9457 44.5002 48.5857C39.8402 51.6957 36.4002 56.5657 34.9902 61.9857C39.5602 58.9357 43.3702 54.8857 47.7302 51.5257C51.0902 48.9357 54.8302 46.7057 57.4202 43.3557C59.6502 40.4657 60.8802 36.9357 62.0602 33.4857C64.0102 27.8057 65.9602 22.0957 66.9202 16.1757C66.9902 15.7357 67.0402 15.2857 67.1002 14.8457C66.4202 16.5757 65.6002 18.1857 64.8502 19.2857Z" fill="#502719"/>
<path d="M1 68.7368C1 68.7368 50.59 70.2768 64.75 3.9668" stroke="#502719" stroke-miterlimit="10"/>
<path d="M23.25 63.1362C25.81 57.9862 28.63 52.9562 31.69 48.0762" stroke="#502719" stroke-miterlimit="10"/>
<path d="M33.8105 57.2261C35.5405 52.1861 36.8405 47.0061 37.7105 41.7461" stroke="#502719" stroke-miterlimit="10"/>
<path d="M41.7109 49.9564C42.9709 43.6164 44.0109 37.2264 44.8209 30.8164" stroke="#502719" stroke-miterlimit="10"/>
<path d="M50.0293 40.327C50.1693 35.007 50.2993 29.697 50.4393 24.377" stroke="#502719" stroke-miterlimit="10"/>
<path d="M55.7793 30.0956C55.6993 26.4856 55.6093 22.8756 55.5293 19.2656" stroke="#502719" stroke-miterlimit="10"/>
<path d="M59.9492 6.87695C60.2492 10.487 60.5392 14.097 60.8392 17.707C62.4092 16.117 63.9092 14.367 65.0892 12.467" stroke="#502719" stroke-miterlimit="10"/>
<path d="M34.1602 57.2059C36.5102 56.9859 38.8502 56.6759 41.1702 56.2559" stroke="#502719" stroke-miterlimit="10"/>
<path d="M23.4492 63.2358C26.4792 63.1958 29.4992 62.9258 32.4892 62.4258" stroke="#502719" stroke-miterlimit="10"/>
</svg>
