<svg width="138" height="234" viewBox="0 0 138 234" fill="none" xmlns="http://www.w3.org/2000/svg">
<mask id="mask0_74_6310" style="mask-type:luminance" maskUnits="userSpaceOnUse" x="0" y="0" width="138" height="234">
<path d="M137.02 0H0V233.45H137.02V0Z" fill="white"/>
</mask>
<g mask="url(#mask0_74_6310)">
<path d="M124.49 13.2812C120.07 15.5612 115.59 17.8612 111.84 21.1412C108.09 24.4112 105.09 28.8013 104.47 33.7413C104.12 36.5613 104.54 39.5012 103.62 42.1912C102.37 45.8312 98.7602 48.6313 98.6502 52.4913C98.5402 56.4613 102.26 59.7012 102.36 63.6712C102.49 68.5612 97.0902 72.7712 98.3702 77.4912C99.4902 81.6212 104.88 82.8913 107.3 86.4113C109.02 88.9113 109.01 92.1713 109.71 95.1213C111.69 103.461 120.47 109.581 128.97 108.571C126.68 106.221 127.7 102.391 129.47 99.6312C131.24 96.8712 133.76 94.4812 134.62 91.3112C135.4 88.4412 134.57 85.1913 132.53 83.0312C131.13 81.5612 129.16 80.4812 128.51 78.5612C127.61 75.9012 129.68 73.2813 130.67 70.6513C131.95 67.2713 131.35 63.2613 129.14 60.4013C127.56 58.3513 125.19 56.8112 124.36 54.3512C122.75 49.5713 127.86 44.3113 125.97 39.6413C124.97 37.1813 122.35 35.8312 120.69 33.7612C118.32 30.8013 118.14 26.5312 119.3 22.9113C120.46 19.3013 122.24 16.3412 124.49 13.2812Z" fill="#2E6B68"/>
<path d="M118.041 19.5117C118.041 19.5117 97.5005 80.7917 127.571 107.372" stroke="#502719" stroke-miterlimit="10"/>
<path d="M122.08 101.421C123.5 95.7906 124.7 90.1106 125.67 84.3906" stroke="#502719" stroke-miterlimit="10"/>
<path d="M116.32 91.3614C118.08 86.0514 119.84 80.7514 121.6 75.4414" stroke="#502719" stroke-miterlimit="10"/>
<path d="M112.84 80.2514C115.43 75.5614 118.01 70.8814 120.6 66.1914" stroke="#502719" stroke-miterlimit="10"/>
<path d="M111.34 68.0213C115.17 63.8613 118.64 59.3713 121.7 54.6113" stroke="#502719" stroke-miterlimit="10"/>
<path d="M111.02 55.7916C114.32 52.5816 117.43 49.1716 120.33 45.6016" stroke="#502719" stroke-miterlimit="10"/>
<path d="M112.34 46.1113C114.52 42.9213 116.7 39.7213 118.89 36.5312" stroke="#502719" stroke-miterlimit="10"/>
<path d="M113.939 34.6816C114.709 33.2016 115.599 31.7716 116.609 30.4316" stroke="#502719" stroke-miterlimit="10"/>
<path d="M116.01 26.0408C115.47 24.6308 114.94 23.2208 114.4 21.8008" stroke="#502719" stroke-miterlimit="10"/>
<path d="M114.121 34.1115C113.001 32.4215 112.031 30.6315 111.221 28.7715" stroke="#502719" stroke-miterlimit="10"/>
<path d="M112.05 46.4005C110.92 44.4305 109.8 42.4505 108.67 40.4805" stroke="#502719" stroke-miterlimit="10"/>
<path d="M111.2 55.5013C108.83 53.1413 106.89 50.3412 105.51 47.2812" stroke="#502719" stroke-miterlimit="10"/>
<path d="M111.1 68.1304C108.4 64.7804 106.15 61.0804 104.41 57.1504" stroke="#502719" stroke-miterlimit="10"/>
<path d="M112.701 80.3503C109.531 78.3403 106.711 75.7803 104.391 72.8203" stroke="#502719" stroke-miterlimit="10"/>
<path d="M116.101 91.4121C113.391 89.1621 110.681 86.9121 107.971 84.6621" stroke="#502719" stroke-miterlimit="10"/>
<path d="M121.84 101.262C118.6 99.9819 115.44 98.5319 112.35 96.9219" stroke="#502719" stroke-miterlimit="10"/>
<path d="M49.8901 151.51C49.8301 146.54 49.7701 141.5 50.9101 136.66C52.0501 131.82 54.5101 127.1 58.5901 124.25C60.9201 122.62 63.7201 121.61 65.6601 119.54C68.2901 116.73 69.0801 112.23 72.4301 110.33C75.8801 108.38 80.4901 110.14 84.0501 108.37C88.4301 106.19 89.6201 99.4502 94.4001 98.3702C98.5801 97.4302 102.21 101.59 106.47 102.08C109.49 102.43 112.36 100.89 115.3 100.13C123.59 97.9702 133.12 102.86 136.21 110.85C133.06 109.93 130.15 112.62 128.54 115.48C126.93 118.33 126 121.68 123.6 123.92C121.43 125.95 118.17 126.75 115.31 125.95C113.36 125.41 111.48 124.17 109.48 124.5C106.71 124.95 105.36 128.01 103.5 130.11C101.12 132.82 97.2801 134.17 93.7301 133.56C91.1801 133.12 88.7101 131.75 86.1501 132.17C81.1801 132.99 78.9201 139.97 73.9101 140.48C71.2701 140.75 68.8501 139.07 66.2401 138.57C62.5101 137.86 58.6601 139.71 56.0001 142.42C53.3201 145.13 51.5401 148.09 49.8901 151.51Z" fill="#2E6B68"/>
<path d="M52.3691 142.9C52.3691 142.9 96.8892 96.04 134.459 110.16" stroke="#502719" stroke-miterlimit="10"/>
<path d="M126.63 108.1C122.32 111.99 117.86 115.71 113.26 119.25" stroke="#502719" stroke-miterlimit="10"/>
<path d="M115.051 107.721C111.191 111.761 107.331 115.801 103.461 119.841" stroke="#502719" stroke-miterlimit="10"/>
<path d="M103.601 109.85C100.671 114.33 97.7405 118.81 94.8105 123.29" stroke="#502719" stroke-miterlimit="10"/>
<path d="M92.0898 114.26C90.2098 119.59 87.8598 124.76 85.0898 129.69" stroke="#502719" stroke-miterlimit="10"/>
<path d="M81.1302 119.699C79.8302 124.119 78.2802 128.459 76.4902 132.699" stroke="#502719" stroke-miterlimit="10"/>
<path d="M73.2105 125.4C71.4105 128.82 69.6105 132.25 67.8105 135.67" stroke="#502719" stroke-miterlimit="10"/>
<path d="M63.8594 132.17C62.9094 133.55 62.0694 135 61.3594 136.51" stroke="#502719" stroke-miterlimit="10"/>
<path d="M57.1895 138.041C55.6895 138.231 54.1895 138.421 52.6895 138.601" stroke="#502719" stroke-miterlimit="10"/>
<path d="M63.4294 132.6C61.4094 132.4 59.3794 132.39 57.3594 132.54" stroke="#502719" stroke-miterlimit="10"/>
<path d="M73.3198 125.011C71.0498 124.941 68.7798 124.871 66.5098 124.801" stroke="#502719" stroke-miterlimit="10"/>
<path d="M80.9708 119.99C77.7708 119 74.3908 118.6 71.0508 118.82" stroke="#502719" stroke-miterlimit="10"/>
<path d="M92.0802 114C87.8602 113.19 83.5302 112.93 79.2402 113.23" stroke="#502719" stroke-miterlimit="10"/>
<path d="M103.62 109.681C100.36 107.821 96.7703 106.531 93.0703 105.871" stroke="#502719" stroke-miterlimit="10"/>
<path d="M114.991 107.5C111.731 106.16 108.481 104.82 105.221 103.48" stroke="#502719" stroke-miterlimit="10"/>
<path d="M126.37 107.959C123.72 105.699 120.96 103.579 118.09 101.609" stroke="#502719" stroke-miterlimit="10"/>
<path d="M178.181 134.821C174.711 134.501 171.711 136.371 169.491 139.061C167.271 141.751 165.731 144.951 163.521 147.641C161.311 150.331 158.081 152.591 154.611 152.291C151.661 152.041 148.821 149.991 145.961 150.771C142.391 151.761 141.441 156.231 139.501 159.381C136.761 163.841 130.861 166.081 125.851 164.561C122.811 163.641 120.041 161.491 116.871 161.641C111.281 161.901 108.391 168.781 103.151 170.741C100.021 171.911 96.5108 171.141 93.4108 169.901C90.3108 168.661 87.3708 166.971 84.1108 166.231C80.8608 165.491 77.0608 165.901 74.8008 168.351C75.6608 163.781 81.2808 160.611 85.7208 159.221C90.1608 157.831 95.1008 156.801 98.0708 153.221C100.741 150.001 101.401 145.121 104.931 142.881C109.591 139.931 116.351 143.421 121.021 140.471C124.571 138.231 125.891 132.781 130.021 132.011C132.481 131.551 134.971 133.051 137.441 132.651C140.621 132.131 142.411 128.831 144.731 126.591C149.321 122.141 156.721 121.761 162.721 123.961C168.731 126.161 173.391 130.581 178.181 134.821Z" fill="#2E6B68"/>
<path d="M91.0215 162.7C104.431 157.98 133.741 143.39 144.611 138.96C155.481 134.53 167.421 130.12 178.181 134.81" stroke="#502719" stroke-miterlimit="10"/>
<path d="M94.4414 165.521C96.2014 163.441 97.9614 161.351 99.7314 159.271" stroke="#502719" stroke-miterlimit="10"/>
<path d="M101.4 165.381C104.23 162.241 106.76 158.821 108.94 155.201" stroke="#502719" stroke-miterlimit="10"/>
<path d="M109.861 161.591C112.421 158.761 114.571 155.561 116.231 152.121" stroke="#502719" stroke-miterlimit="10"/>
<path d="M118.9 158.441C120.87 154.971 122.84 151.501 124.81 148.031" stroke="#502719" stroke-miterlimit="10"/>
<path d="M127.871 156.042C130.351 151.732 132.831 147.412 135.311 143.102" stroke="#502719" stroke-miterlimit="10"/>
<path d="M99.3 159.482C97.78 158.962 96.27 158.442 94.75 157.922" stroke="#502719" stroke-miterlimit="10"/>
<path d="M108.7 155.51C106.1 154.94 103.55 154.18 101.07 153.23" stroke="#502719" stroke-miterlimit="10"/>
<path d="M116.131 151.84C113.041 150.47 109.951 149.1 106.861 147.73" stroke="#502719" stroke-miterlimit="10"/>
<path d="M124.292 148.111C121.112 146.951 117.942 145.791 114.762 144.631" stroke="#502719" stroke-miterlimit="10"/>
<path d="M135.32 142.701C132.31 141.681 129.36 140.481 126.49 139.121" stroke="#502719" stroke-miterlimit="10"/>
<path d="M144.39 139.081C141.79 137.871 139.19 136.661 136.59 135.441" stroke="#502719" stroke-miterlimit="10"/>
<path d="M83.5311 5.64062C79.9411 7.01063 76.3011 8.40063 73.1511 10.5906C69.9911 12.7806 67.3111 15.8906 66.4111 19.6306C65.9011 21.7606 65.9711 24.0606 65.0311 26.0506C63.7611 28.7406 60.7411 30.5806 60.3311 33.5306C59.9111 36.5706 62.4911 39.3806 62.2311 42.4306C61.9111 46.2006 57.4011 48.9706 57.9811 52.7006C58.4911 55.9706 62.5111 57.4006 64.0711 60.3206C65.1811 62.3906 64.8911 64.8906 65.1711 67.2206C65.9811 73.7906 72.1911 79.2506 78.8111 79.2006C77.2511 77.2006 78.3611 74.3406 79.9611 72.3706C81.5511 70.4006 83.7011 68.7806 84.6211 66.4206C85.4611 64.2806 85.1111 61.7206 83.7211 59.8806C82.7711 58.6306 81.3511 57.6306 81.0211 56.1006C80.5611 53.9806 82.3711 52.1406 83.3511 50.2106C84.6211 47.7306 84.5011 44.5906 83.0511 42.2106C82.0111 40.5006 80.3211 39.1106 79.9011 37.1606C79.0711 33.3506 83.4511 29.7506 82.4011 26.0006C81.8411 24.0206 79.9411 22.7606 78.8511 21.0306C77.2811 18.5506 77.5111 15.2606 78.7111 12.5806C79.9111 9.92062 81.5311 7.80063 83.5311 5.64062Z" fill="#2E6B68"/>
<path d="M75.1314 12.7812C70.7114 29.0112 65.2514 44.8913 70.2114 61.6613C71.8414 67.1713 74.1814 72.4512 76.7814 77.5612" stroke="#502719" stroke-miterlimit="10"/>
<path d="M76.2219 18.0116C75.3319 18.9816 74.3119 19.8416 73.2019 20.5416C72.2419 19.1616 71.3619 18.0416 70.1719 16.8516" stroke="#502719" stroke-miterlimit="10"/>
<path d="M76.8105 23.0798C74.9905 24.3298 73.1705 25.5798 71.3505 26.8398C70.6705 24.8698 69.6805 22.8198 68.0605 21.5098" stroke="#502719" stroke-miterlimit="10"/>
<path d="M77.1519 28.25C74.9119 30.12 72.5319 31.83 70.0419 33.35C68.7019 31.68 67.2619 30.1 65.9219 28.43" stroke="#502719" stroke-miterlimit="10"/>
<path d="M76.5409 34.0605C74.1409 35.9405 71.5609 37.5905 68.8409 38.9705C66.9309 37.5405 65.5309 35.8305 63.8809 34.1105" stroke="#502719" stroke-miterlimit="10"/>
<path d="M76.3503 40.8098C73.6303 42.7298 70.9103 44.6398 68.2003 46.5598C66.6503 44.4298 64.9203 42.4698 63.0703 40.5898" stroke="#502719" stroke-miterlimit="10"/>
<path d="M77.1312 46.5C74.4812 49.41 71.6512 52.16 68.6812 54.74C66.7512 53.09 64.5412 51.62 62.4512 50.17" stroke="#502719" stroke-miterlimit="10"/>
<path d="M77.3801 53.5215C74.8801 56.3815 72.3801 59.2415 69.8801 62.1015C68.0701 61.0415 66.3002 59.7315 64.6602 58.4215" stroke="#502719" stroke-miterlimit="10"/>
<path d="M78.7117 59.9297C76.3717 62.7097 74.2717 65.6997 72.4417 68.8397C70.4917 67.8797 68.5217 66.7797 66.7617 65.5097" stroke="#502719" stroke-miterlimit="10"/>
<path d="M5.14062 97.0501C5.79062 93.2601 6.45062 89.4301 7.99062 85.9001C9.53062 82.3801 12.0606 79.1401 15.5606 77.5401C17.5606 76.6301 19.8206 76.2501 21.5906 74.9501C23.9806 73.1801 25.2106 69.8701 28.0206 68.9001C30.9206 67.9001 34.1806 69.8801 37.1206 69.0401C40.7606 67.9901 42.6006 63.0401 46.3806 62.8901C49.6806 62.7601 51.8706 66.4301 55.0306 67.4001C57.2706 68.0901 59.6706 67.3201 62.0106 67.1501C68.6106 66.6701 75.1706 71.7101 76.4006 78.2201C74.1406 77.0801 71.5506 78.7201 69.9206 80.6701C68.2906 82.6101 67.1206 85.0301 64.9906 86.4001C63.0506 87.6401 60.4706 87.7901 58.4006 86.7801C56.9906 86.0901 55.7406 84.8901 54.1706 84.8601C52.0006 84.8201 50.5506 86.9501 48.8406 88.2901C46.6506 90.0201 43.5506 90.5101 40.9306 89.5501C39.0506 88.8601 37.3606 87.4701 35.3606 87.4401C31.4706 87.3701 28.7806 92.3601 24.9006 92.0501C22.8506 91.8901 21.2506 90.2701 19.3406 89.5301C16.6006 88.4701 13.4206 89.3301 11.0206 91.0201C8.63063 92.6801 6.87063 94.6801 5.14062 97.0501Z" fill="#2E6B68"/>
<path d="M10.5215 87.4295C25.5915 79.9495 40.1115 71.5295 57.5315 73.1495C63.2515 73.6795 68.8815 74.9595 74.4015 76.5195" stroke="#502719" stroke-miterlimit="10"/>
<path d="M15.8605 87.4893C16.6405 86.4293 17.2805 85.2693 17.7605 84.0393C16.2205 83.3593 14.9505 82.7193 13.5605 81.7793" stroke="#502719" stroke-miterlimit="10"/>
<path d="M20.9509 87.0903C21.8309 85.0603 22.7009 83.0403 23.5809 81.0103C21.5209 80.7303 19.3109 80.1503 17.7109 78.8203" stroke="#502719" stroke-miterlimit="10"/>
<path d="M26.0898 86.4309C27.4898 83.8709 28.7098 81.2109 29.7198 78.4709C27.8198 77.4809 25.9898 76.3709 24.0898 75.3809" stroke="#502719" stroke-miterlimit="10"/>
<path d="M31.6715 84.6995C33.0515 81.9795 34.1715 79.1295 35.0015 76.1995C33.2315 74.6095 31.2815 73.5595 29.2715 72.2695" stroke="#502719" stroke-miterlimit="10"/>
<path d="M38.2605 83.2107C39.6205 80.1707 40.9705 77.1307 42.3305 74.1007C39.9405 72.9907 37.6805 71.6707 35.4805 70.2207" stroke="#502719" stroke-miterlimit="10"/>
<path d="M43.9902 82.8698C46.3302 79.7098 48.4902 76.3998 50.4402 72.9798C48.4502 71.4098 46.5802 69.5198 44.7502 67.7598" stroke="#502719" stroke-miterlimit="10"/>
<path d="M50.9297 81.7601C53.2497 78.7501 55.5697 75.7501 57.8897 72.7401C56.4997 71.1701 54.8697 69.6801 53.2697 68.3301" stroke="#502719" stroke-miterlimit="10"/>
<path d="M57.4707 81.8293C59.7407 78.9893 62.2707 76.3593 65.0007 73.9593C63.6807 72.2393 62.2307 70.5193 60.6407 69.0293" stroke="#502719" stroke-miterlimit="10"/>
<path d="M73.9805 76.2109C92.6105 97.1009 120.24 106.411 147.01 113.651C149.93 114.851 152.21 116.811 155.62 117.771" stroke="#502719" stroke-miterlimit="10"/>
<path d="M76.3512 78.3511C77.3612 79.9611 79.7912 79.7911 81.4012 78.7911C83.0112 77.7811 83.5012 75.6611 82.4912 74.0511C81.4812 72.4411 79.3612 71.9511 77.7512 72.9611C76.1412 73.9711 75.3512 76.7411 76.3512 78.3511Z" fill="#EA6760"/>
<path d="M73.4512 78.1902C72.2212 76.7502 69.8412 77.2602 68.3912 78.4902C66.9512 79.7202 66.7712 81.8902 68.0012 83.3302C69.2312 84.7702 71.4012 84.9502 72.8412 83.7202C74.2912 82.5002 74.6812 79.6402 73.4512 78.1902Z" fill="#EA6760"/>
<path d="M77.2808 79.6806C75.4508 80.1806 74.9008 82.5505 75.3908 84.3805C75.8808 86.2105 77.7708 87.3006 79.6008 86.8006C81.4308 86.3006 82.5208 84.4205 82.0208 82.5905C81.5208 80.7605 79.1108 79.1906 77.2808 79.6806Z" fill="#D14946"/>
<path d="M71.471 75.9408C72.291 77.6508 74.721 77.7708 76.431 76.9508C78.141 76.1308 78.871 74.0808 78.051 72.3708C77.231 70.6608 75.181 69.9308 73.471 70.7508C71.761 71.5708 70.651 74.2308 71.471 75.9408Z" fill="#D14946"/>
<path d="M81.1706 78.6304C80.4306 80.3804 81.9706 82.2704 83.7206 83.0104C85.4706 83.7504 87.4806 82.9304 88.2206 81.1804C88.9606 79.4304 88.1406 77.4204 86.3906 76.6804C84.6406 75.9404 81.9106 76.8804 81.1706 78.6304Z" fill="#D14946"/>
<path d="M76.6906 72.9807C76.1906 73.5207 75.3506 72.7507 75.8506 72.2107C76.3506 71.6607 77.1906 72.4307 76.6906 72.9807Z" fill="#502719"/>
<path d="M81.1711 75.1803C80.6711 75.7203 79.8311 74.9503 80.3311 74.4103C80.8311 73.8703 81.6711 74.6403 81.1711 75.1803Z" fill="#502719"/>
<path d="M87.0808 80.041C87.0708 80.051 87.0608 80.061 87.0508 80.081C87.0008 80.141 86.9408 80.181 86.8708 80.211C86.8108 80.251 86.7308 80.271 86.6608 80.271C86.5808 80.281 86.5108 80.261 86.4408 80.231C86.3708 80.211 86.3008 80.171 86.2408 80.121C86.2108 80.081 86.1708 80.041 86.1408 80.001C86.0908 79.911 86.0608 79.821 86.0508 79.721C86.0508 79.671 86.0608 79.621 86.0608 79.571C86.0808 79.471 86.1308 79.381 86.2008 79.301C86.2108 79.291 86.2208 79.281 86.2308 79.261C86.2808 79.201 86.3408 79.161 86.4108 79.131C86.4708 79.091 86.5508 79.071 86.6208 79.071C86.7008 79.061 86.7708 79.081 86.8408 79.111C86.9108 79.131 86.9808 79.171 87.0408 79.221C87.0708 79.261 87.1108 79.301 87.1408 79.341C87.1908 79.431 87.2208 79.521 87.2308 79.621C87.2308 79.671 87.2208 79.721 87.2208 79.771C87.2008 79.881 87.1508 79.971 87.0808 80.041Z" fill="#502719"/>
<path d="M78.3922 84.8205C78.4022 84.8105 78.4122 84.8005 78.4222 84.7805C78.4722 84.7205 78.5322 84.6805 78.6022 84.6505C78.6622 84.6105 78.7422 84.5905 78.8122 84.5905C78.8922 84.5805 78.9622 84.6005 79.0322 84.6305C79.1022 84.6505 79.1722 84.6905 79.2322 84.7405C79.2622 84.7805 79.3022 84.8205 79.3322 84.8605C79.3822 84.9505 79.4122 85.0405 79.4222 85.1405C79.4222 85.1905 79.4122 85.2405 79.4122 85.2905C79.3922 85.3905 79.3422 85.4805 79.2722 85.5605C79.2622 85.5705 79.2522 85.5805 79.2422 85.6005C79.1922 85.6605 79.1322 85.7005 79.0622 85.7305C79.0022 85.7705 78.9222 85.7905 78.8522 85.7905C78.7722 85.8005 78.7022 85.7805 78.6322 85.7505C78.5622 85.7305 78.4922 85.6905 78.4322 85.6405C78.4022 85.6005 78.3622 85.5605 78.3322 85.5205C78.2822 85.4305 78.2522 85.3405 78.2422 85.2405C78.2422 85.1905 78.2522 85.1405 78.2522 85.0905C78.2822 84.9805 78.3222 84.9005 78.3922 84.8205Z" fill="#502719"/>
<path d="M69.1211 81.8302C69.2011 81.7702 69.3211 81.7402 69.4111 81.7402C69.4611 81.7402 69.5111 81.7502 69.5611 81.7502C69.5711 81.7502 69.7011 81.8002 69.7011 81.8002C69.7111 81.8002 69.8211 81.8802 69.8311 81.8902C69.8711 81.9202 69.9111 81.9702 69.9311 82.0102C69.9411 82.0202 69.9911 82.1302 69.9911 82.1502C70.0111 82.2002 70.0111 82.2602 70.0211 82.3102C70.0211 82.3602 70.0211 82.4202 70.0111 82.4702C70.0111 82.4802 69.9611 82.6102 69.9611 82.6102L69.8711 82.7402C69.8611 82.7502 69.7611 82.8302 69.7511 82.8402C69.6811 82.8902 69.5511 82.9302 69.4711 82.9302C69.4611 82.9302 69.3311 82.9202 69.3211 82.9202C69.3011 82.9102 69.2411 82.8902 69.2511 82.8902C69.2511 82.8902 69.2011 82.8702 69.1811 82.8602C69.1111 82.8302 69.0511 82.7802 69.0011 82.7102C68.9511 82.6602 68.9111 82.5902 68.8911 82.5202C68.8711 82.4502 68.8611 82.3802 68.8711 82.3002C68.8711 82.2302 68.8911 82.1502 68.9311 82.0902C68.9611 82.0502 68.9911 82.0102 69.0211 81.9602C69.0911 81.8802 69.1711 81.8302 69.2711 81.8002C69.3211 81.7902 69.3711 81.7802 69.4111 81.7702C69.5111 81.7702 69.6111 81.7902 69.7011 81.8302C69.6511 81.8102 69.6111 81.8002 69.5611 81.7802C69.5111 81.7802 69.4611 81.7702 69.4111 81.7702C69.3611 81.7802 69.3111 81.7902 69.2711 81.8002C69.2311 81.8202 69.1811 81.8402 69.1411 81.8602C69.1011 81.8902 69.0611 81.9302 69.0211 81.9602C68.9911 82.0002 68.9611 82.0402 68.9311 82.0902C68.9311 82.0902 68.9311 82.0902 68.9311 82.0802C68.9111 82.1302 68.9011 82.1702 68.8811 82.2202V82.2102C68.8811 82.2602 68.8711 82.3102 68.8711 82.3602V82.3502C68.8811 82.4002 68.8911 82.4502 68.9011 82.4902V82.4802C68.9211 82.5202 68.9411 82.5702 68.9611 82.6102C68.9611 82.6102 68.9611 82.6102 68.9611 82.6002C68.9911 82.6402 69.0311 82.6802 69.0611 82.7202C69.1011 82.7502 69.1411 82.7802 69.1911 82.8102C69.2411 82.8302 69.2811 82.8402 69.3311 82.8602C69.3811 82.8602 69.4311 82.8702 69.4811 82.8702C69.5311 82.8602 69.5811 82.8502 69.6211 82.8402C69.6611 82.8202 69.7111 82.8002 69.7511 82.7802C69.6911 82.8202 69.6211 82.8502 69.5411 82.8502C69.4711 82.8702 69.4011 82.8702 69.3211 82.8502C69.2411 82.8402 69.1811 82.8102 69.1211 82.7602C69.0511 82.7202 69.0011 82.6702 68.9611 82.6002C68.9411 82.5602 68.9211 82.5102 68.9011 82.4702C68.8711 82.3702 68.8711 82.2802 68.8911 82.1802C68.9111 82.1302 68.9211 82.0902 68.9411 82.0402C68.9711 81.9602 69.0411 81.8802 69.1211 81.8302Z" fill="#502719"/>
</g>
</svg>
