<svg width="24" height="25" viewBox="0 0 24 25" fill="none" xmlns="http://www.w3.org/2000/svg">
<path d="M3 12.5C3 13.6819 3.23279 14.8522 3.68508 15.9442C4.13738 17.0361 4.80031 18.0282 5.63604 18.864C6.47177 19.6997 7.46392 20.3626 8.55585 20.8149C9.64778 21.2672 10.8181 21.5 12 21.5C13.1819 21.5 14.3522 21.2672 15.4442 20.8149C16.5361 20.3626 17.5282 19.6997 18.364 18.864C19.1997 18.0282 19.8626 17.0361 20.3149 15.9442C20.7672 14.8522 21 13.6819 21 12.5C21 11.3181 20.7672 10.1478 20.3149 9.05585C19.8626 7.96392 19.1997 6.97177 18.364 6.13604C17.5282 5.30031 16.5361 4.63738 15.4442 4.18508C14.3522 3.73279 13.1819 3.5 12 3.5C10.8181 3.5 9.64778 3.73279 8.55585 4.18508C7.46392 4.63738 6.47177 5.30031 5.63604 6.13604C4.80031 6.97177 4.13738 7.96392 3.68508 9.05585C3.23279 10.1478 3 11.3181 3 12.5Z" stroke="#0C859F" stroke-width="2" stroke-linecap="round" stroke-linejoin="round"/>
<path d="M13.867 10.25C13.621 9.77 13.159 9.481 12.667 9.5H11.333C10.597 9.5 10 10.17 10 11C10 11.827 10.597 12.499 11.333 12.499H12.667C13.403 12.499 14 13.17 14 13.999C14 14.827 13.403 15.498 12.667 15.498H11.333C10.841 15.517 10.379 15.228 10.133 14.748M12 7.5V9.5M12 15.5V17.5M6 6.5L7.5 8M16.5 17L18 18.5" stroke="#0C859F" stroke-width="2" stroke-linecap="round" stroke-linejoin="round"/>
</svg>
