<svg width="184" height="184" viewBox="0 0 184 184" fill="none" xmlns="http://www.w3.org/2000/svg" xmlns:xlink="http://www.w3.org/1999/xlink">
<path d="M0,92C0,67.6 9.693,44.2 26.946,26.946C44.2,9.693 67.6,0 92,0C116.4,0 139.8,9.693 157.054,26.946C174.307,44.2 184,67.6 184,92C184,116.4 174.307,139.8 157.054,157.054C139.8,174.307 116.4,184 92,184C67.6,184 44.2,174.307 26.946,157.054C9.693,139.8 0,116.4 0,92ZM86.75,131.376L139.717,65.161L130.149,57.506L84.983,113.945L52.992,87.29L45.141,96.71L86.75,131.376Z" clip-rule="evenodd" fill-rule="evenodd" fill="#6F4E37"/>
</svg>
